<svg height="512" viewBox="0 0 512 512" width="512" xmlns="http://www.w3.org/2000/svg"><g id="out_line" data-name="out line"><path d="m176 352h8v58.745a116.491 116.491 0 0 0 34.343 82.912 8 8 0 0 0 5.657 2.343h64a8 8 0 0 0 5.657-2.343 116.772 116.772 0 0 0 28.326-45.657h14.017a56 56 0 0 0 8-111.419v-24.581a8 8 0 0 0 -8-8h-8v-16a8 8 0 0 0 -2.343-5.657l-5.657-5.657v-124.686a8 8 0 0 0 -8-8v-81.376a24 24 0 0 0 -8-46.624h-96a24 24 0 0 0 -8 46.624v81.376a8 8 0 0 0 -8 8v124.686l-5.657 5.657a8 8 0 0 0 -2.343 5.657v16h-8a8 8 0 0 0 -8 8v32a8 8 0 0 0 8 8zm108.614 128h-57.228a100.569 100.569 0 0 1 -23.111-40h103.45a100.569 100.569 0 0 1 -23.111 40zm27.386-69.255a102.935 102.935 0 0 1 -.861 13.255h-47.139v-16a8 8 0 0 0 -16 0v16h-47.139a102.935 102.935 0 0 1 -.861-13.255v-42.745l9.6 12.8a8 8 0 0 0 6.4 3.2v8a8 8 0 0 0 16 0v-8h48v16a8 8 0 0 0 16 0v-16a8 8 0 0 0 6.4-3.2l9.6-12.8zm-104-58.745h96l-12 16h-72zm128 0a40 40 0 0 1 0 80h-9.918a118.123 118.123 0 0 0 1.8-16h8.118a24 24 0 1 0 0-48h-8v-16zm-8 48v-16h8a8 8 0 0 1 0 16zm-120-368h96a8 8 0 0 1 0 16h-96a8 8 0 0 1 0-16zm88 32v80h-80v-80zm-96 227.314 5.657-5.657a8 8 0 0 0 2.343-5.657v-120h96v120a8 8 0 0 0 2.343 5.657l5.657 5.657v12.686h-112zm-16 28.686h144v16h-144z"/><path d="m256 240a24 24 0 1 0 24 24 24.027 24.027 0 0 0 -24-24zm0 32a8 8 0 1 1 8-8 8.009 8.009 0 0 1 -8 8z"/><path d="m256 176a24 24 0 1 0 24 24 24.027 24.027 0 0 0 -24-24zm0 32a8 8 0 1 1 8-8 8.009 8.009 0 0 1 -8 8z"/><path d="m248 128h16a8 8 0 0 0 0-16h-16a8 8 0 0 0 0 16z"/><path d="m248 96h16a8 8 0 0 0 0-16h-16a8 8 0 0 0 0 16z"/><path d="m344 144h16v24h-16z"/><path d="m344 80h16v48h-16z"/><path d="m344 184h16v16h-16z"/></g></svg>