<?xml version="1.0"?>
<svg xmlns="http://www.w3.org/2000/svg" viewBox="0 0 512 512" width="512" height="512"><g id="out_line" data-name="out line"><path d="M368,496a39.962,39.962,0,0,0,31.978-16H408a24,24,0,0,0,19.915-10.621c.252-.238.509-.469.757-.717a38.712,38.712,0,0,0,4.824-48.84L424,405.578v-29.1l5.693-47.527c.006-.051.012-.1.017-.154a68.867,68.867,0,0,0-12.1-46.334l-24.139-34.491c-19.162-27.375-37.183-42.95-55.075-47.609L311.7,190.887a55.542,55.542,0,0,0,7.706-17.407l8.528.867a24.424,24.424,0,0,0,2.47.126,23.989,23.989,0,0,0,17.681-40.163l3.05-29.985a81.658,81.658,0,0,0,.411-8.175,80,80,0,0,0-159.6-8l-3.042,29.986A23.987,23.987,0,0,0,200.593,161.4l8.526.867a55.4,55.4,0,0,0,3.925,18.4s-30.314,3.43-30.5,3.464c-.041.008-17.777,5.839-17.777,5.839a91.732,91.732,0,0,0-51.624,43.128L84.755,285c-.1.186-.195.375-.282.568a44.715,44.715,0,0,0,13.266,53.591,8.223,8.223,0,0,0,.875.6l61.391,36.115c0,.043,0,.086,0,.128V488a8,8,0,0,0,8,8H312a8,8,0,0,0,8-7.715L321.4,449,328,442v14A40.045,40.045,0,0,0,368,496ZM338.322,151.279a8.012,8.012,0,0,1-8.767,7.15l-7.96-.81,1.618-15.918,7.96.81A8.008,8.008,0,0,1,338.322,151.279ZM318.1,52.225A63.671,63.671,0,0,1,335.55,96.15a65.472,65.472,0,0,1-.329,6.56l-2.429,23.877-.194-.016-7.767-.791,2.427-23.874a8,8,0,0,0-7.151-8.767l-5.857-.6ZM392,456a24,24,0,0,1-48,0v-8h48Zm-51.813-24,8.329-4.468A23.7,23.7,0,0,1,350.638,432ZM376,400V384h32v16Zm32,64H407.2a40.028,40.028,0,0,0,.805-8v-8a8,8,0,0,1,0,16Zm12.186-35.3a22.6,22.6,0,0,1,3.56,9.211A23.889,23.889,0,0,0,408,432H387.062l-2-16h26.657ZM342,218.785c11.836,5.987,24.7,18.843,38.365,38.361l24.14,34.491a52.871,52.871,0,0,1,9.291,35.49L408.9,368H376V312a8,8,0,0,0-2.879-6.146l-41.6-34.662Zm18,96.962V408a8,8,0,0,0,8,8h.938l2,16H367.2a39.576,39.576,0,0,0-7.237-16.051,7.987,7.987,0,0,0-2.473-5.181l-33.6-31.721,4.066-89.994ZM326.8,213.223,316.3,265.7,304.539,245.43l6.312-37.868ZM285.972,33.892a63.872,63.872,0,0,1,17.177,6.635l-4.818,50.4-17.642-1.793Zm24.559,74.356-4.814,47.358-.849,8.354v0A40,40,0,0,1,234.074,185.2c-.4-.487-.78-.984-1.152-1.486-.048-.072-.1-.139-.154-.21a39.705,39.705,0,0,1-7.49-27.628l.739-7.265,2.5-24.558h0l0-.012v-.007l2.426-23.871ZM294.65,207.436l-5.3,31.777L224,232.644V197.966a55.579,55.579,0,0,0,35.411,17.664,56.58,56.58,0,0,0,5.7.29A55.718,55.718,0,0,0,294.65,207.436ZM253.9,34.742a63.507,63.507,0,0,1,16.159-2.467l-5.276,55.24L249,85.912ZM210.169,146.295l-7.959-.809a8,8,0,0,1,.8-15.959c.263,0,.529.014.8.04l7.977.813Zm-4.723-32.645,2.423-23.881a63.893,63.893,0,0,1,29.219-47.408l-4.007,41.933-8.481-.862a8,8,0,0,0-8.768,7.15l-2.427,23.877Zm-14.12,85.575L208,197.344v39.665l-22.091,17.163Zm-7.621,76.92,35.868-27.866,72.339,7.27L311.9,289.984l-3.421,75.261a8,8,0,0,0-8.832,1.911v0l-5.811-5.491a23.979,23.979,0,0,0-30.206-2.237l-9.973-9.973A8,8,0,0,0,248,347.114H226.428l-21.99-14.66c-.044-.029-.091-.052-.135-.08-.019-.012-.035-.026-.053-.037l-23.723-14.876Zm93.952,97.312-2.129-2.13a8.069,8.069,0,0,1,1.832-.217,7.959,7.959,0,0,1,5.486,2.185l5.817,5.5-10.984,11.633-2.919-2.756,2.9-2.9A8,8,0,0,0,277.657,373.457ZM228,363.114h16.687l16,16L232,407.8l-21.437-21.438Zm-29.859,13.142-8.9-5.935L202.3,350.255l10.231,6.821Zm-90.929-50a28.742,28.742,0,0,1-8.259-33.865l28.231-51.6a75.772,75.772,0,0,1,42.645-35.628l4.982-1.661-5.649,56.484-31.394,39a8,8,0,0,0,1.982,11.793l28.076,17.605.037.024,20.994,13.164-15.392,23.658Zm59.491-37.7-1.485,19.31L155.876,302ZM304.28,480H176V384a8.016,8.016,0,0,0,3.609-.869l15.28,10.186,31.454,31.454a8,8,0,0,0,11.314,0l25.784-25.783,3.253,3.07-4.119,4.362a26,26,0,0,0,1.057,36.754l14.542,13.73A25.817,25.817,0,0,0,296,464q.382,0,.766-.012a26.058,26.058,0,0,0,8.137-1.548Zm21.645-58.506a7.979,7.979,0,0,0-2.034,1.558l-20.6,21.813a10,10,0,0,1-14.137.406L274.616,431.54a10.012,10.012,0,0,1-.407-14.136l31.569-33.435.006,0,.006-.007h0l4.288,4.048c.06.061.124.117.185.176l28.175,26.6Z"/><path d="M245.209,137.794a10,10,0,1,0-8.938-10.96A10,10,0,0,0,245.209,137.794Z"/><path d="M288.983,142.243a10,10,0,1,0-8.938-10.959A10,10,0,0,0,288.983,142.243Z"/><path d="M241.59,161.976a8,8,0,0,0,2.474,11.039,43.973,43.973,0,0,0,38.955,3.959,8,8,0,0,0-5.672-14.961,27.914,27.914,0,0,1-24.718-2.512A8,8,0,0,0,241.59,161.976Z"/><path d="M245.839,337.937q1.221.072,2.429.073a40.052,40.052,0,0,0,39.9-37.6l1.44-23.957a8,8,0,0,0-7.5-8.466l-63.885-3.842a8,8,0,0,0-8.466,7.5l-1.441,23.956a40,40,0,0,0,37.527,42.33Zm-21.556-41.369.961-15.97,47.913,2.881-.96,15.971a24,24,0,0,1-47.914-2.882Z"/></g></svg>
