<?xml version="1.0"?>
<svg xmlns="http://www.w3.org/2000/svg" viewBox="0 0 512 512" width="512" height="512"><g id="out_line" data-name="out line"><path d="M448.972,111.772a74.464,74.464,0,0,0-77.04,13.158l-.081.072-27.827,25.026-.078-.145A56.058,56.058,0,0,0,288,96h-6.414a28.553,28.553,0,0,0,2.056-5.582,38.189,38.189,0,0,0-10-36.085,24.984,24.984,0,0,0-35.292,0h0a38.191,38.191,0,0,0-10,36.085A28.553,28.553,0,0,0,230.414,96H224a56.058,56.058,0,0,0-55.946,53.883l-15.175,28.182a343.189,343.189,0,0,0-38.662,123.5A38.062,38.062,0,0,1,82,264a220.193,220.193,0,0,1,11.32-69.73c10.18-30.542,4.508-62.875-15.174-86.492a8,8,0,0,0-5.989-2.877l-23.946-.47-1.834-2.964a14.422,14.422,0,0,1,9.977-21.829l4.782-.768A30.357,30.357,0,0,0,83.98,61.479L85.1,59.022A32,32,0,0,0,26.9,32.417l-2.787,6.1a8,8,0,0,0,14.553,6.651l2.785-6.095a16,16,0,0,1,29.105,13.3l-1.123,2.458A14.394,14.394,0,0,1,58.6,63.073l-4.783.768a30.409,30.409,0,0,0-23.827,40.232L26.327,104a8,8,0,0,0-6.678,12.634l16.027,22.548c.774,1.088,1.549,2.08,2.277,3.012a38.33,38.33,0,0,1,6.027,35.637A272.194,272.194,0,0,0,30,264a90.119,90.119,0,0,0,82,89.64V406a41.784,41.784,0,0,0,9.052,26H120a32.036,32.036,0,0,0-32,32v24a8,8,0,0,0,8,8H416a8,8,0,0,0,8-8V464a32.036,32.036,0,0,0-32-32h-1.052A41.784,41.784,0,0,0,400,406V372.944l51.456-25.728A80.122,80.122,0,0,0,496,275.15V181.23a74.831,74.831,0,0,0-47.028-69.458ZM112.021,337.563A74.1,74.1,0,0,1,46,264a256.2,256.2,0,0,1,13.16-81.11,54.317,54.317,0,0,0-8.573-50.512c-.673-.863-1.309-1.677-1.876-2.473l-6.819-9.595,26.179.514c14.3,19.052,18.086,44.338,10.07,68.387A236.162,236.162,0,0,0,66,264a54.071,54.071,0,0,0,46.771,53.5Q112.1,327.514,112.021,337.563ZM249.666,65.647a8.968,8.968,0,0,1,12.667,0,22.111,22.111,0,0,1,5.787,20.891,12.493,12.493,0,0,1-24.24,0,22.111,22.111,0,0,1,5.787-20.891ZM224,112h64a40.071,40.071,0,0,1,39.2,32H184.8A40.071,40.071,0,0,1,224,112ZM128,340.207a327.058,327.058,0,0,1,38.967-154.556L180.778,160H331.222l13.811,25.651A327.058,327.058,0,0,1,384,340.207V384H128ZM128,400H384v6a26.029,26.029,0,0,1-26,26H154a26.029,26.029,0,0,1-26-26Zm264,48a16.019,16.019,0,0,1,16,16v16H104V464a16.019,16.019,0,0,1,16-16Zm7.09-132.49a343.646,343.646,0,0,0-30.869-119.244c10.173-9.029,26.944-23.881,37.482-32.928a25.624,25.624,0,0,1,26.319-4.309l.5.2a24.618,24.618,0,0,1,15.558,22.995l-.07,93.016a25.455,25.455,0,0,1-14.158,22.885ZM480,275.15a64.212,64.212,0,0,1-35.7,57.755L400,355.056V332.944l41.008-20.509a41.365,41.365,0,0,0,23-37.189l.07-93.01a40.539,40.539,0,0,0-25.622-37.865l-.494-.2a41.572,41.572,0,0,0-42.685,7.027c-9.555,8.2-24.136,21.088-34.4,30.191-.582-1.111-1.162-2.222-1.757-3.326l-7.29-13.539,30.678-27.59A58.813,58.813,0,0,1,480,181.23Z"/><path d="M270,184H242a18.021,18.021,0,0,0-18,18V342a18.021,18.021,0,0,0,18,18h28a18.021,18.021,0,0,0,18-18V202A18.021,18.021,0,0,0,270,184Zm2,158a2,2,0,0,1-2,2H242a2,2,0,0,1-2-2V328h16V312H240V296h32Zm0-62H240V264h16V248H240V232h16V216H240V202a2,2,0,0,1,2-2h28a2,2,0,0,1,2,2Z"/><path d="M78.819,80.09A8,8,0,0,0,80.009,96a8.146,8.146,0,0,0,1.209-.091l2.641-.4a44.369,44.369,0,0,0,35.752-30.367,8,8,0,0,0-15.222-4.929A28.457,28.457,0,0,1,81.46,79.69Z"/><path d="M116.693,47.415a8,8,0,0,0,10.592-3.978l.567-1.249a62.57,62.57,0,0,0,4.977-17.061,8,8,0,1,0-15.84-2.254,46.583,46.583,0,0,1-3.707,12.7l-.567,1.25A8,8,0,0,0,116.693,47.415Z"/></g></svg>
