<?xml version="1.0"?>
<svg xmlns="http://www.w3.org/2000/svg" viewBox="0 0 512 512" width="512" height="512"><g id="out_line" data-name="out line"><path d="M488,432H440V70a22.025,22.025,0,0,0-22-22H350a22.025,22.025,0,0,0-22,22V80H221.575A83.995,83.995,0,0,0,56,100v52a8,8,0,0,0,8,8H89.754l6.485,25.94A8,8,0,0,0,104,192h9.754l6.485,25.94A8,8,0,0,0,128,224v72H104a8,8,0,0,0-7.96,8.8l.72,7.2H88a24,24,0,0,0,0,48h13.56l1.6,16H88a8,8,0,0,0-8,8v56a8,8,0,0,0,8,8h32a8,8,0,0,0,7.589-5.47L133.766,424H386.234l2.852,8.556A8,8,0,0,0,392,448h9.441l6.714,33.569a8,8,0,0,0,4.267,5.586l16,8A7.994,7.994,0,0,0,432,496h16a7.994,7.994,0,0,0,3.578-.845l16-8a8,8,0,0,0,4.267-5.586L478.559,448H488a8,8,0,0,0,0-16ZM88,344a8,8,0,0,1,0-16H98.36l1.6,16Zm22.246-168-4-16h59.508l-4,16ZM144,312h15.16l-1.6,16H144Zm-2.246-120-4,16h-3.508l-4-16ZM155.96,344l-3.2,32H119.24l-3.2-32ZM128,312v16H114.44l-1.6-16Zm72,96H128a8,8,0,0,0-7.589,5.47L114.234,432H96V392H200Zm0-32H168.84l7.12-71.2A8,8,0,0,0,168,296H144V224a8,8,0,0,0,7.761-6.06L158.246,192H168a8,8,0,0,0,7.761-6.06L182.246,160H200Zm8-232H72V100a68,68,0,0,1,136,0ZM328,408H216V160H328Zm0-296H280v16h48v16H224V128h40V112H224V96H328Zm16-42a6.006,6.006,0,0,1,6-6h68a6.006,6.006,0,0,1,6,6v42H344Zm80,58V233.976a52.139,52.139,0,0,0-32-3.353V128Zm-80,96h16V208H344V176h16V160H344V128h32V235.289a36.22,36.22,0,0,1-22.168-3.317L344,227.056Zm0,96h16V304H344V272h16V256H344V244.944l2.677,1.338A52.215,52.215,0,0,0,376,251.443V296h16V247.144a36.172,36.172,0,0,1,30.9,4.4l1.1.733V352H344Zm61.766,112-6.177-18.53A8,8,0,0,0,392,408H344V368h80v64Zm51.157,42.6L446.111,480H433.889l-10.812-5.4L417.758,448h44.484Z"/><path d="M392,480h-9.441l-6.714-33.569a8,8,0,0,0-4.267-5.586l-16-8A7.994,7.994,0,0,0,352,432H336a7.994,7.994,0,0,0-3.578.845l-16,8a8,8,0,0,0-4.267,5.586L305.441,480H296a8,8,0,0,0,0,16h96a8,8,0,0,0,0-16Zm-70.242,0,5.319-26.6,10.812-5.4h12.222l10.812,5.4,5.319,26.6Z"/><path d="M271.5,280.5a33,33,0,1,0,33,33A33.038,33.038,0,0,0,271.5,280.5Zm0,50a17,17,0,1,1,17-17A17.019,17.019,0,0,1,271.5,330.5Z"/><path d="M120,248a8,8,0,0,0-16,0,16.019,16.019,0,0,1-16,16,8,8,0,0,0,0,16A32.036,32.036,0,0,0,120,248Z"/><path d="M168,248a8,8,0,0,0-16,0,32.036,32.036,0,0,0,32,32,8,8,0,0,0,0-16A16.019,16.019,0,0,1,168,248Z"/><path d="M271.5,259.5A39.5,39.5,0,1,0,232,220,39.545,39.545,0,0,0,271.5,259.5Zm0-63a23.352,23.352,0,0,1,12.055,3.337L266.442,213.8a8,8,0,1,0,10.116,12.4l17.116-13.968A23.5,23.5,0,1,1,271.5,196.5Z"/></g></svg>
