<?xml version="1.0"?>
<svg xmlns="http://www.w3.org/2000/svg" viewBox="0 0 512 512" width="512" height="512"><g id="out_line" data-name="out line"><path d="M100.387,474.289C142.071,488.29,197.335,496,256,496s113.929-7.71,155.613-21.711c45.047-15.13,68.857-35.532,68.857-59,0-20.794-19.389-35.839-35.655-44.8-18.84-10.378-44.709-19.043-75.214-25.258A112.233,112.233,0,0,0,374.176,328H408a64,64,0,1,0,0-128H376v-.471a36.545,36.545,0,0,0-4.6-17.576c-5.791-10.684-16.928-20.262-32.723-27.894-.376-.181-.769-.35-1.149-.529A40.306,40.306,0,0,0,344,130.665c0-13.873-5.248-21.308-9.464-27.281C330.742,98.008,328,94.124,328,85.329a8,8,0,0,0-16,0c0,13.873,5.248,21.308,9.464,27.281,3.794,5.376,6.536,9.26,6.536,18.055,0,8.1-2.328,12.035-5.659,16.805a188.231,188.231,0,0,0-32.374-7.622c-5.462-.805-11.058-1.415-16.751-1.823a39.737,39.737,0,0,0,6.387-16.989,8,8,0,1,0-15.865-2.072c-.78,5.972-3.2,9.407-6.274,13.755-1.03,1.459-2.121,3.008-3.182,4.713a233.1,233.1,0,0,0-32.249,2.416c-2.422.358-4.807.767-7.174,1.2A45.269,45.269,0,0,0,216,130.665a40.3,40.3,0,0,0-6.518-22.95,8,8,0,1,0-13.511,8.57A24.332,24.332,0,0,1,200,130.665c0,7.012-1.746,10.9-4.376,14.916a146.373,146.373,0,0,0-22.3,8.478c-15.8,7.632-26.932,17.21-32.723,27.894a36.545,36.545,0,0,0-4.6,17.576V307.765a112.467,112.467,0,0,0,6.4,37.469c-30.5,6.215-56.374,14.88-75.214,25.258-16.266,8.959-35.655,24-35.655,44.8C31.53,438.757,55.34,459.159,100.387,474.289ZM376,248h32a16,16,0,0,1,0,32H376Zm0,59.765V296h32a32,32,0,0,0,0-64H376V216h32a48,48,0,0,1,0,96H375.912C375.964,310.594,376,309.183,376,307.765Zm-195.715-139.3c1.52-.735,3.092-1.436,4.688-2.12A45.893,45.893,0,0,0,184,176a8,8,0,0,0,16,0c0-7.961,2.25-11.9,5.49-16.563a200.292,200.292,0,0,1,42.934-5.885A48.528,48.528,0,0,0,248,160a8,8,0,0,0,16,0,30.011,30.011,0,0,1,.625-6.412,192.245,192.245,0,0,1,49.661,8.075A42.684,42.684,0,0,0,312,176a8,8,0,0,0,16,0,27.09,27.09,0,0,1,1.238-8.674c.831.377,1.668.749,2.477,1.14C349.691,177.151,360,188.474,360,199.529a20.619,20.619,0,0,1-2.526,9.586C335.959,191.651,297.6,180.71,256,180.71s-79.959,10.941-101.474,28.405A20.619,20.619,0,0,1,152,199.529C152,188.474,162.309,177.151,180.285,168.466Zm166.7,52.711a79.934,79.934,0,0,1-15.265,9.416c-20.09,9.708-46.98,15.054-75.715,15.054s-55.625-5.346-75.715-15.054a79.934,79.934,0,0,1-15.265-9.416c18.5-14.838,53.591-24.467,90.98-24.467S328.475,206.339,346.98,221.177ZM152,231.131A91.616,91.616,0,0,0,173.324,245C195.541,255.735,224.9,261.647,256,261.647s60.459-5.912,82.676-16.647A91.616,91.616,0,0,0,360,231.131v76.634a97.136,97.136,0,0,1-.678,11.412v.007C353.42,369.1,309.339,408,256,408c-57.346,0-104-44.965-104-100.235Zm-3.059,129.1C168.767,398.036,209.31,424,256,424s87.233-25.964,107.059-63.767c60.915,11.92,101.411,33.775,101.411,55.057,0,15.258-21.664,31.644-57.951,43.832C366.434,472.585,312.978,480,256,480c-122.854,0-208.47-34.1-208.47-64.71C47.53,394.008,88.026,372.153,148.941,360.233Z"/><path d="M259.97,100.284a8,8,0,0,0,13.513-8.568c-.982-1.549-1.982-2.964-2.947-4.333-3.8-5.376-6.536-9.259-6.536-18.054s2.741-12.676,6.536-18.051C274.752,45.305,280,37.872,280,24a8,8,0,0,0-16,0c0,8.793-2.741,12.676-6.536,18.051C253.248,48.024,248,55.458,248,69.329s5.248,21.307,9.464,27.28C258.357,97.875,259.2,99.07,259.97,100.284Z"/><path d="M323.386,69.2a8,8,0,0,0,11.15-1.922C338.752,61.305,344,53.872,344,40a8,8,0,0,0-16,0c0,8.793-2.741,12.676-6.536,18.051A8,8,0,0,0,323.386,69.2Z"/><path d="M192.071,96c.16,0,.324,0,.486-.014a8,8,0,0,0,7.507-8.465c-.043-.7-.064-1.443-.064-2.192,0-8.793,2.741-12.676,6.536-18.051C210.752,61.305,216,53.872,216,40a8,8,0,0,0-16,0c0,8.793-2.741,12.676-6.536,18.051C189.248,64.024,184,71.458,184,85.329c0,1.067.031,2.128.092,3.15A8,8,0,0,0,192.071,96Z"/></g></svg>
