<?xml version="1.0"?>
<svg xmlns="http://www.w3.org/2000/svg" viewBox="0 0 512 512" width="512" height="512"><g id="out_line" data-name="out line"><path d="M464,264H400V236.281L418.422,224H440a8,8,0,0,0,8-8V104a8,8,0,0,0-8-8H416V80A63.963,63.963,0,0,0,301.885,40.264l-25.319,5.064A25.585,25.585,0,0,0,281.584,96H240V80A63.963,63.963,0,0,0,125.885,40.264l-25.319,5.064A25.585,25.585,0,0,0,105.584,96H72a8,8,0,0,0-8,8V216a8,8,0,0,0,8,8H93.578L112,236.281V432H72a8,8,0,0,0-8,8v48a8,8,0,0,0,8,8H440a8,8,0,0,0,8-8V440a8,8,0,0,0-8-8H400V328h64a32,32,0,0,0,0-64ZM304,80a48,48,0,0,1,96,0V96H304Zm-32-9.584a9.61,9.61,0,0,1,7.7-9.4l11.98-2.4A63.7,63.7,0,0,0,288,80h-6.416A9.6,9.6,0,0,1,272,70.416ZM128,80a48,48,0,0,1,96,0V96H128ZM96,70.416a9.61,9.61,0,0,1,7.7-9.4l11.98-2.4A63.7,63.7,0,0,0,112,80h-6.416A9.6,9.6,0,0,1,96,70.416ZM432,448v32H80V448ZM186.344,271.03A23.846,23.846,0,0,0,169.373,264H160a8,8,0,0,0,0,16h9.373a8,8,0,0,1,0,16H136a24.021,24.021,0,0,0-8,1.362V240h64.593a55.806,55.806,0,0,0,15.447,31.207c-.026.261-.04.525-.04.793v48a8,8,0,0,0,8,8h8v8a8,8,0,0,0,16,0v-8h32v8a8,8,0,0,0,16,0v-8h8a8,8,0,0,0,8-8h24a8.009,8.009,0,0,1-8,8,24.027,24.027,0,0,0-24,24H264v-8a8,8,0,0,0-16,0v8H214.987A32.057,32.057,0,0,0,184,328H136a8,8,0,0,1,0-16h33.373a24,24,0,0,0,16.971-40.97ZM288,264H224.006a39.919,39.919,0,0,1-15.2-24h94.4A40.054,40.054,0,0,1,288,264Zm0,16v32H224V280Zm18.115,143.736,25.319-5.064A25.585,25.585,0,0,0,326.416,368H320v-8a8,8,0,0,0-8-8,8.009,8.009,0,0,1,8-8,24.027,24.027,0,0,0,24-24h15.015L384,326.246V432H298.264A64.517,64.517,0,0,0,306.115,423.736ZM256,432a48.054,48.054,0,0,1-48-48V368h96v16A48.054,48.054,0,0,1,256,432Zm60.315-26.622A63.7,63.7,0,0,0,320,384h6.416a9.584,9.584,0,0,1,1.879,18.982ZM328,304H304V288h48v16h-8a8,8,0,0,0-16,0Zm40,1.754V286.246l16-4v27.508ZM359.015,272H304c0-.265-.015-.526-.04-.784A55.5,55.5,0,0,0,319.43,240H384v25.754ZM136,344h48a16.008,16.008,0,0,1,14,8.263A8,8,0,0,0,192,360v24a63.85,63.85,0,0,0,21.736,48H128V342.638A24.021,24.021,0,0,0,136,344ZM389.578,224H122.422l-21.984-14.656A8.005,8.005,0,0,0,96,208H80V112H432v96H416a8.005,8.005,0,0,0-4.438,1.344ZM448,312H400V280h48Zm16,0V280a16,16,0,0,1,0,32Z"/><path d="M152,136a32,32,0,1,0,32,32A32.036,32.036,0,0,0,152,136Zm0,48a16,16,0,1,1,16-16A16.019,16.019,0,0,1,152,184Z"/><path d="M360,136a32,32,0,1,0,32,32A32.036,32.036,0,0,0,360,136Zm0,48a16,16,0,1,1,16-16A16.019,16.019,0,0,1,360,184Z"/><path d="M256,128a40,40,0,1,0,40,40A40.045,40.045,0,0,0,256,128Zm0,64a23.861,23.861,0,0,1-10.341-2.345l16-16a8,8,0,1,0-11.314-11.314l-16,16A24,24,0,1,1,256,192Z"/></g></svg>
