<?xml version="1.0"?>
<svg xmlns="http://www.w3.org/2000/svg" viewBox="0 0 512 512" width="512" height="512"><g id="out_line" data-name="out line"><path d="M400,288a24,24,0,1,0,24,24A24.027,24.027,0,0,0,400,288Zm0,32a8,8,0,1,1,8-8A8.009,8.009,0,0,1,400,320Z"/><path d="M400,352a24,24,0,1,0,24,24A24.027,24.027,0,0,0,400,352Zm0,32a8,8,0,1,1,8-8A8.009,8.009,0,0,1,400,384Z"/><path d="M488,16H168a8,8,0,0,0-8,8V56a8,8,0,0,0,8,8h1.223l22.886,137.315A8,8,0,0,0,200,208h29.687a51.109,51.109,0,0,0,52.626,0H344v59.173A45.814,45.814,0,0,0,320,256.4V232a8,8,0,0,0-8-8H200a8,8,0,0,0-8,8v24.4A46.1,46.1,0,0,0,157.613,280H144a56,56,0,0,0,0,112h8a39.814,39.814,0,0,0,9.432,25.76A46.072,46.072,0,0,0,128,462v26a8,8,0,0,0,8,8H472a8,8,0,0,0,8-8V424c0-.1-.012-.2-.015-.305,0-.123-.009-.245-.019-.368-.015-.183-.04-.362-.068-.541-.011-.072-.014-.145-.027-.217L448.15,248.1,486.505,64H488a8,8,0,0,0,8-8V24A8,8,0,0,0,488,16ZM152,344h-8a8,8,0,0,1,0-16h8Zm0-32h-8a24,24,0,0,0,0,48h8v16h-8a40,40,0,0,1,0-80h8ZM280,192a8,8,0,0,0-4.438,1.344,35.176,35.176,0,0,1-39.125,0A8,8,0,0,0,232,192H206.777L185.444,64H344V192Zm-72,48h96v16H208Zm-40,62a30.034,30.034,0,0,1,30-30h92.882l-6.956,10.434a10.956,10.956,0,1,0,18.231,0L295.2,272H314a30.034,30.034,0,0,1,30,30v29.305l-19.463,6.488a50.369,50.369,0,0,1-38.707-2.751,67.016,67.016,0,0,0-59.66,0,50.374,50.374,0,0,1-38.707,2.75L168,331.305Zm0,46.171,14.4,4.8a66.27,66.27,0,0,0,50.923-3.619,50.942,50.942,0,0,1,45.348,0,66.277,66.277,0,0,0,50.923,3.619l14.4-4.8V384H168ZM342.624,400A24.039,24.039,0,0,1,320,416H192a24.039,24.039,0,0,1-22.624-16ZM464,480H144V462a30.034,30.034,0,0,1,30-30H464Zm-1.586-64H360V256h73.323ZM433.5,240H360V64H470.162ZM480,48H176V32H480Z"/><path d="M384,224h32a8,8,0,0,0,8-8V88a8,8,0,0,0-8-8H384a8,8,0,0,0-8,8V216A8,8,0,0,0,384,224Zm8-128h16v16H392Zm0,32h16v16H392Zm0,32h16v16H392Zm0,32h16v16H392Z"/><path d="M251.059,319.55a10.956,10.956,0,0,0,14.015-15.876L255.958,290l-9.115,13.674A10.955,10.955,0,0,0,251.059,319.55Z"/><path d="M211.806,310.2a10.956,10.956,0,0,0,14.016-15.877l-9.116-13.674L207.59,294.32A10.956,10.956,0,0,0,211.806,310.2Z"/></g></svg>
