<?xml version="1.0"?>
<svg xmlns="http://www.w3.org/2000/svg" viewBox="0 0 512 512" width="512" height="512"><g id="out_line" data-name="out line"><path d="M488,80H346.3a95.5,95.5,0,0,0-179.6,0H24a8,8,0,0,0-8,8V488a8,8,0,0,0,8,8H488a8,8,0,0,0,8-8V88A8,8,0,0,0,488,80ZM350.735,128H448v32H339.328A94.809,94.809,0,0,0,350.735,128ZM256.5,33A79.5,79.5,0,1,1,177,112.5,79.59,79.59,0,0,1,256.5,33ZM173.672,160H64V128h98.265A94.809,94.809,0,0,0,173.672,160ZM32,246.777l32-5.334V400H32ZM56,440a23.885,23.885,0,0,0,1.376,8H56a8,8,0,0,0-7.761,9.94L53.754,480H32V416H76.426c-.036.1-.081.187-.116.283A24.038,24.038,0,0,0,56,440Zm25.323-7.874a8,8,0,0,0,9.255-7.06,13.431,13.431,0,0,1,6.275-10.031c.037-.021.072-.046.11-.067a13.566,13.566,0,0,1,14.073,0c.038.022.073.047.112.068a13.431,13.431,0,0,1,6.274,10.031,8,8,0,0,0,9.255,7.06A8.239,8.239,0,0,1,128,432a8,8,0,0,1,0,16H80a8,8,0,0,1,0-16A8.239,8.239,0,0,1,81.323,432.126ZM80,400V240h48V400H116.994a29.639,29.639,0,0,0-25.987,0Zm57.754,80H70.246l-4-16h75.508ZM176,480H154.246l5.515-22.06A8,8,0,0,0,152,448h-1.376a23.993,23.993,0,0,0-18.934-31.717c-.035-.1-.08-.187-.116-.283H176Zm0-80H144V241.443l32,5.334Zm0-169.444-38.685-6.448c-.068-.011-.137-.013-.206-.022-.166-.023-.333-.043-.5-.055-.119-.009-.239-.015-.359-.018-.083,0-.164-.013-.248-.013H72c-.084,0-.166.01-.249.013q-.18,0-.36.018c-.168.012-.334.032-.5.055-.068.009-.138.011-.206.022L32,230.556V208H176ZM32,192V96H162.431a95.761,95.761,0,0,0-1.425,16H56a8,8,0,0,0-8,8v48a8,8,0,0,0,8,8H185.236a96.282,96.282,0,0,0,18.41,16ZM192,312V280h48v32Zm48,16v32H192V328Zm64,152H192V376H304Zm0-120H256V328h48Zm0-48H256V280h48Zm0-48H192V208H304Zm32,216H320V440h16Zm32,0H352V440h16Zm48,0H384V440h32Zm32,0H432V440h16Zm32,0H464V440h16Zm0-56H320V408H480ZM352,376v-8h16v8a8,8,0,0,1-16,0Zm128,16H432V360h48Zm-40-48v-8a8,8,0,0,1,16,0v8Zm40,0h-8v-8a24,24,0,0,0-48,0v8a8,8,0,0,0-8,8v40H388a20,20,0,0,0,0-40H344a8,8,0,0,0-8,8v16a23.9,23.9,0,0,0,6.131,16H320V248h32v9.376a24,24,0,1,0,16,0V248h48v9.376a24,24,0,1,0,16,0V248h48Zm-96,32v-8h4a4,4,0,0,1,0,8ZM360,272a8,8,0,1,1-8,8A8.009,8.009,0,0,1,360,272Zm64,0a8,8,0,1,1-8,8A8.009,8.009,0,0,1,424,272Zm56-40H320V208H480Zm0-40H309.354a96.282,96.282,0,0,0,18.41-16H456a8,8,0,0,0,8-8V120a8,8,0,0,0-8-8H351.994a95.761,95.761,0,0,0-1.425-16H480Z"/><path d="M216,464h64a8,8,0,0,0,8-8V400a8,8,0,0,0-8-8H216a8,8,0,0,0-8,8v56A8,8,0,0,0,216,464Zm8-56h48v40H224Z"/><rect x="208" y="224" width="80" height="16"/><path d="M248,168a48.069,48.069,0,0,0,47.321-40H304a24,24,0,0,0,0-48h-8a8,8,0,0,0-8-8H208a8,8,0,0,0-8,8v40A48.054,48.054,0,0,0,248,168Zm48-72h8a8,8,0,0,1,0,16h-8Zm-80-8h64v32a32,32,0,0,1-64,0Z"/></g></svg>
