<svg height="512" viewBox="0 0 512 512" width="512" xmlns="http://www.w3.org/2000/svg"><g id="out_line" data-name="out line"><path d="m160 488a8 8 0 0 0 8 8h176a8 8 0 0 0 8-8v-216a8 8 0 0 0 -8-8h-24v-104a8 8 0 0 0 -8-8h-32v-56h32a8 8 0 0 0 8-8v-46a26.029 26.029 0 0 0 -26-26h-76a26.029 26.029 0 0 0 -26 26v46a8 8 0 0 0 8 8h32v56h-32a8 8 0 0 0 -8 8v104h-24a8 8 0 0 0 -8 8zm48-408v-38a10.011 10.011 0 0 1 10-10h76a10.011 10.011 0 0 1 10 10v38zm56 16v56h-16v-56zm-56 72h96v16h-96zm0 32h96v64h-96zm-32 80h160v200h-160z"/><path d="m312 328h-112a8 8 0 0 0 -8 8v120a8 8 0 0 0 8 8h112a8 8 0 0 0 8-8v-120a8 8 0 0 0 -8-8zm-104 120v-19.556a198.467 198.467 0 0 0 9.692 19.556zm67.66 0h-39.32a182.423 182.423 0 0 1 -18.062-37.238l6.16-4.106a13.6 13.6 0 0 1 15.124 0 29.556 29.556 0 0 0 32.876 0 13.6 13.6 0 0 1 15.124 0l6.16 4.106a182.423 182.423 0 0 1 -18.062 37.238zm28.34 0h-9.692a198.467 198.467 0 0 0 9.692-19.556zm0-97.689a182.681 182.681 0 0 1 -5.467 44.43l-2.1-1.4a29.556 29.556 0 0 0 -32.876 0 13.6 13.6 0 0 1 -15.124 0 29.556 29.556 0 0 0 -32.876 0l-2.095 1.4a182.681 182.681 0 0 1 -5.462-44.43v-6.311h96z"/><path d="m248 360h16v16h-16z"/><path d="m336 144h16v16h-16z"/><path d="m336 96h16v32h-16z"/><path d="m160 104h16v16h-16z"/><path d="m160 56h16v32h-16z"/><path d="m422.805 420.341a51.233 51.233 0 0 0 -29.6 6.624c-10.012 5.579-17.819 13.88-21.985 23.371-4.5 10.25-4.312 20.676.527 29.355 5.894 10.575 17.725 16.245 30.945 16.245a52.047 52.047 0 0 0 25.185-6.766c10.012-5.58 17.819-13.88 21.985-23.372a37.4 37.4 0 0 0 3.148-12.4 35.272 35.272 0 0 0 11.983 2.195 29.819 29.819 0 0 0 14.25-3.56c8.749-4.712 14.518-13.4 16.242-24.458 1.6-10.241-.515-21.439-5.95-31.53-11.611-21.561-35.121-31.53-52.41-22.219-8.749 4.711-14.518 13.4-16.242 24.457a48.347 48.347 0 0 0 1.922 22.058zm52.64-16.71c3.79 7.036 5.292 14.664 4.23 21.478-.936 6-3.783 10.554-8.021 12.836a13.456 13.456 0 0 1 -4.235 1.4l-3.945-7.326a19.182 19.182 0 0 1 -1.5-14.707 35.091 35.091 0 0 0 -2.734-26.89l-1.61-2.99c6.726 2.323 13.47 8.13 17.815 16.199zm-38.756-2.883a18.961 18.961 0 0 1 4.522-10.068l3.946 7.326a19.179 19.179 0 0 1 1.5 14.706 35.154 35.154 0 0 0 -.908 16.56 39.587 39.587 0 0 1 -4.825-7.046c-3.795-7.037-5.297-14.664-4.235-21.478zm-.632 56.385c-.242.741-.519 1.486-.848 2.235-2.771 6.315-8.143 11.936-15.123 15.827-13.453 7.5-29.19 5.991-34.366-3.294a13.447 13.447 0 0 1 -1.459-4.215l7.269-4.052a19.2 19.2 0 0 1 14.684-1.708 35.083 35.083 0 0 0 26.847-3.122zm-3.517-16.357-7.269 4.052a19.186 19.186 0 0 1 -14.683 1.708 35.143 35.143 0 0 0 -16.57-.67 39.632 39.632 0 0 1 6.974-4.926 36.281 36.281 0 0 1 17.467-4.812 28.292 28.292 0 0 1 3.948.273 18.959 18.959 0 0 1 10.133 4.375z"/></g></svg>