<?xml version="1.0"?>
<svg xmlns="http://www.w3.org/2000/svg" viewBox="0 0 512 512" width="512" height="512"><g id="out_line" data-name="out line"><rect x="248" y="200" width="16" height="16"/><rect x="248" y="384" width="16" height="16"/><path d="M168,96H134a22.025,22.025,0,0,0-22,22V474a22.025,22.025,0,0,0,22,22h34a8,8,0,0,0,8-8V352h19.056l5.528,11.055a33.167,33.167,0,0,1,1.128,27.125L190.105,419.2a56.791,56.791,0,0,0,17.351,65.814A50.33,50.33,0,0,0,238.786,496H278.54a50.16,50.16,0,0,0,50.11-48.016A39.785,39.785,0,0,0,352,439.978V488a8,8,0,0,0,8,8h34a22.025,22.025,0,0,0,22-22V118a22.025,22.025,0,0,0-22-22H360a8,8,0,0,0-8,8v8H320V24a8,8,0,0,0-8-8H200a8,8,0,0,0-8,8v88H176v-8A8,8,0,0,0,168,96Zm200,16h26a6.006,6.006,0,0,1,6,6V474a6.006,6.006,0,0,1-6,6H368Zm-240,6a6.006,6.006,0,0,1,6-6h26V304H128Zm32,362H134a6.006,6.006,0,0,1-6-6V352h32Zm142.688-10a33.92,33.92,0,0,1-24.148,10H238.786a34.276,34.276,0,0,1-21.335-7.484,40.842,40.842,0,0,1-14.981-38.272l4.338,1.222a48.236,48.236,0,0,0,34.73-3.291,32.5,32.5,0,0,1,28.924,0l.236.118a48.278,48.278,0,0,0,34.2,3.437l5.719-1.541A34.094,34.094,0,0,1,302.688,470ZM214.9,355.9l-1.951-3.9H248v16h16V352h43.9A104.436,104.436,0,0,0,305,412.647l1.533,6.072-5.8,1.563a32.305,32.305,0,0,1-22.879-2.3l-.236-.118a48.566,48.566,0,0,0-43.236,0,32.279,32.279,0,0,1-23.235,2.2l-3.736-1.053,9.156-22.891A49.184,49.184,0,0,0,214.9,355.9ZM328,432h-1.264c-.412-1.431-.882-2.853-1.426-4.26l-4.8-19.008A88.329,88.329,0,0,1,317.9,384H328a24,24,0,0,1,0,48Zm24-55.978A39.788,39.788,0,0,0,328,368h-8.062a88.37,88.37,0,0,1,5.174-16H352ZM352,336H128V320H352Zm-72-64v32H232V272Zm-48-16V240h48v16ZM208,32h96V42.224l-3.354-5.314a8,8,0,0,0-11.036-2.494l-28.7,18.119a8,8,0,0,0-2.494,11.035L270.368,82.5l-12.315,4.237-20.4-20.4a8,8,0,0,0-11.314,0L208,84.686Zm77.794,44.964-9.578-15.17,15.171-9.578,9.578,15.171ZM288.97,112,272,117.833l-5.837-16.966L281.176,95.7a8.026,8.026,0,0,0,2.132.3c.051,0,.1-.01.155-.011ZM304,84.392V106.5l-6.25-18.166ZM244.687,96,232,108.687,219.313,96,232,83.313ZM208,107.314l18.343,18.343a8,8,0,0,0,11.314,0l14.969-14.969,6.852,19.915a8,8,0,0,0,10.167,4.962l32.094-11.043a7.888,7.888,0,0,0,1.219-.545A18.014,18.014,0,0,1,286,136H226a18.021,18.021,0,0,1-18-18ZM264,152v12.687l-8,8-8-8V152Zm-70.5-24A34.059,34.059,0,0,0,226,152h6v16a8,8,0,0,0,2.343,5.657l16,16a8,8,0,0,0,11.314,0l16-16A8,8,0,0,0,280,168V152h6a34.059,34.059,0,0,0,32.5-24H352V304H296V232a8,8,0,0,0-8-8H224a8,8,0,0,0-8,8v72H176V128Z"/></g></svg>
