<svg height="512" viewBox="0 0 512 512" width="512" xmlns="http://www.w3.org/2000/svg"><g id="out_line" data-name="out line"><path d="m488.558 64.769a40.045 40.045 0 0 0 -55.794-9.327l-65.121 46.467a8 8 0 0 0 -1.866 11.159l4.647 6.512-19.914 14.21v-22.025a8 8 0 0 0 -8-8h-72a8 8 0 0 0 -8-8h-32a8 8 0 0 0 -8 8h-8v-23.008l7.758-30.8a8 8 0 0 0 .242-1.957v-16a16.019 16.019 0 0 0 -16-16h-32a16.019 16.019 0 0 0 -16 16v16a8 8 0 0 0 .242 1.954l7.758 30.8v23.008a8 8 0 0 0 -7.284 4.692l-54.326 119.603-21.443 35.943h-35.457a32.036 32.036 0 0 0 -32 32v15.548a24.2 24.2 0 0 0 22.851 24.425c.39.019.781.027 1.17.027a23.907 23.907 0 0 0 7.979-1.383v32.22a181.8 181.8 0 0 0 3.521 35.563 231.119 231.119 0 0 1 4.479 45.229v26.371a22.025 22.025 0 0 0 22 22h68a22.025 22.025 0 0 0 22-22v-26.371a231.119 231.119 0 0 1 4.479-45.231 181.8 181.8 0 0 0 3.521-35.561v-60.968a23.986 23.986 0 0 0 -16-41.869h-26.358l15.849-28.329c.007-.011.01-.024.017-.035s.018-.026.025-.04l45.726-83.831h27.251v8a8 8 0 0 0 8 8h32a8 8 0 0 0 8-8v-8h19.055l-10.211 20.423c-.02.04-.032.082-.051.123-.111.229-.209.463-.3.7-.024.067-.05.134-.073.2a8.1 8.1 0 0 0 -.249.9v.01a7.871 7.871 0 0 0 -.135.929c-.008.09-.009.18-.014.271-.008.148-.022.3-.022.445v32a8 8 0 0 0 8 8v12.753a116.43 116.43 0 0 0 -32 80.5v162.981a24.027 24.027 0 0 0 24 24h96a24.027 24.027 0 0 0 24-24v-162.98a116.43 116.43 0 0 0 -32-80.5v-12.755a8 8 0 0 0 8-8v-32c0-.043-.006-.086-.007-.129l23.8-16.983 4.646 6.512a8 8 0 0 0 11.158 1.866l65.121-46.468a40 40 0 0 0 9.328-55.794zm-314.048-32.769h32v15.008l-6.236 24.757h-19.529l-6.235-24.757zm24 55.765v16h-16v-16zm-81.967 152h12.324l-13.558 24.235h-13.222zm43.457 127.072a165.685 165.685 0 0 1 -3.211 32.424 247.147 247.147 0 0 0 -4.789 48.368v26.371a6.006 6.006 0 0 1 -6 6h-68a6.006 6.006 0 0 1 -6-6v-26.371a247.147 247.147 0 0 0 -4.789-48.368 165.685 165.685 0 0 1 -3.211-32.424v-54.837h96zm0-86.837a8 8 0 0 1 0 16h-104a8 8 0 0 0 -8 8v8a8 8 0 0 1 -8.4 7.991 8.328 8.328 0 0 1 -7.6-8.443v-15.548a16.019 16.019 0 0 1 16-16zm62.51-144.235h-32a8 8 0 0 0 -7.024 4.169l-45.725 83.831h-13.34l47.241-104h50.848zm32 16h-16v-40h16zm104 32v16h-64v-16zm-22.51-29.793 9.842 13.793h-46.388l8-16h27.438a8.017 8.017 0 0 0 1.108 2.207zm-65.49-18.207v-16h64v16zm112 336.235a8.009 8.009 0 0 1 -8 8h-96a8.009 8.009 0 0 1 -8-8v-72h112zm0-120h-30.51v16h30.51v16h-112v-16h33.49v-16h-33.49v-16h112zm0-42.98v10.98h-112v-10.98a100.59 100.59 0 0 1 29.657-71.6 8 8 0 0 0 2.343-5.657v-16h48v16a8 8 0 0 0 2.343 5.657 100.59 100.59 0 0 1 29.657 71.6zm-14.6-148.337-7.241-14.483 19.048-13.6 6.249 8.757 3.045 4.268zm24.828-37.372-9.293-13.024 58.609-41.821a24.037 24.037 0 0 1 27.71-.117zm86.928-31.352a23.846 23.846 0 0 1 -9.731 15.58l-58.61 41.821-4.645-6.51-4.647-6.513 77.037-54.97a23.91 23.91 0 0 1 .599 10.592z"/><path d="m80 328h16v16h-16z"/><path d="m120 352h16v16h-16z"/><path d="m88 376h16v16h-16z"/><path d="m120 408h16v16h-16z"/><path d="m347.807 260.932a8 8 0 0 0 -2.619 11.006 45.881 45.881 0 0 1 6.812 24.062 8 8 0 0 0 16 0 61.861 61.861 0 0 0 -9.188-32.448 8 8 0 0 0 -11.005-2.62z"/></g></svg>