<svg height="512" viewBox="0 0 512 512" width="512" xmlns="http://www.w3.org/2000/svg"><g id="out_line" data-name="out line"><path d="m412 208h-52v-16a8 8 0 0 0 8-8v-32a8 8 0 0 0 -8-8v-10.334a17.076 17.076 0 0 0 -9.49-15.355 212.521 212.521 0 0 0 -86.51-22.138v-17.186a32 32 0 1 0 -16 0v17.186a212.523 212.523 0 0 0 -86.512 22.139 17.075 17.075 0 0 0 -9.488 15.354v10.334a8 8 0 0 0 -8 8v25.946a65.538 65.538 0 0 0 -30.628 17.367l-7.029 7.03a8 8 0 0 0 2.079 12.812l43.578 21.789v199.056a60.068 60.068 0 0 0 60 60h88a60.067 60.067 0 0 0 59.852-56h52.148a50.057 50.057 0 0 0 50-50v-132a50.057 50.057 0 0 0 -50-50zm-260 11.056-26.482-13.242a49.539 49.539 0 0 1 26.482-13.181zm88-171.056a16 16 0 1 1 16 16 16.019 16.019 0 0 1 -16-16zm-72 85.666a1.164 1.164 0 0 1 .645-1.045 195.34 195.34 0 0 1 174.709 0 1.166 1.166 0 0 1 .646 1.046v10.333h-176zm176 302.334a44.049 44.049 0 0 1 -44 44h-88a44.049 44.049 0 0 1 -44-44v-92h176zm0-108h-176v-16h176zm-176-32v-24h80v24zm176 0h-80v-24h80zm0-40h-176v-32h176zm-176-48v-16h80v16zm176 0h-80v-16h80zm8-32h-192v-16h192zm8 48h8a8 8 0 0 1 0 16h-8zm0 32h48a6.006 6.006 0 0 1 6 6v124a6.006 6.006 0 0 1 -6 6h-48zm8 168h-8v-16h8a8 8 0 0 1 0 16zm78-34a34.038 34.038 0 0 1 -34 34h-21.376a23.944 23.944 0 0 0 0-16h17.376a22.025 22.025 0 0 0 22-22v-124a22.025 22.025 0 0 0 -22-22h-17.376a23.944 23.944 0 0 0 0-16h21.376a34.038 34.038 0 0 1 34 34z"/><path d="m192 360h16v16h-16z"/><path d="m216 376h16v16h-16z"/><path d="m240 360h16v16h-16z"/><path d="m264 376h16v16h-16z"/><path d="m288 360h16v16h-16z"/><path d="m312 376h16v16h-16z"/><path d="m210 464h6a8 8 0 0 0 0-16h-6a10.011 10.011 0 0 1 -10-10v-6a8 8 0 0 0 -16 0v6a26.029 26.029 0 0 0 26 26z"/><path d="m248 464h8a8 8 0 0 0 0-16h-8a8 8 0 0 0 0 16z"/><path d="m112 152a8 8 0 0 0 -8-8h-9.167a6.833 6.833 0 0 1 -3.056-12.944 8.022 8.022 0 0 0 1.236-.765l6.551-4.936a31.211 31.211 0 0 0 -1.463-50.9l-13.663-9.111a8 8 0 0 0 -8.876 13.312l13.664 9.11a15.21 15.21 0 0 1 .712 24.808l-6.03 4.543a22.833 22.833 0 0 0 10.925 42.883h9.167a8 8 0 0 0 8-8z"/><path d="m88 176h-18a22 22 0 0 1 -17.6-35.2l5.461-7.283a32.251 32.251 0 0 0 -2.98-41.951l-9.224-9.223a8 8 0 0 0 -11.314 11.314l9.223 9.224a16.172 16.172 0 0 1 1.5 21.036l-5.466 7.283a38 38 0 0 0 30.4 60.8h18a8 8 0 0 0 0-16z"/></g></svg>