<?xml version="1.0"?>
<svg xmlns="http://www.w3.org/2000/svg" viewBox="0 0 512 512" width="512" height="512"><g id="out_line" data-name="out line"><path d="M495.155,116.422,464,54.112V24a8,8,0,0,0-8-8H296a8,8,0,0,0-8,8V54.112l-31.155,62.31.006,0A7.949,7.949,0,0,0,256,120v16.034c-.507-.012-1.011-.034-1.52-.034h-24V104h8a8,8,0,0,0,8-8V64a8,8,0,0,0-8-8h-64a8,8,0,0,0-8,8V96a8,8,0,0,0,8,8h8v32H160a62.661,62.661,0,0,0-50.688,25.612A39.994,39.994,0,0,0,32,176v0A40,40,0,0,0,48.01,247.2q-.011.4-.01.8a31.945,31.945,0,0,0,49.52,26.731V448a48.055,48.055,0,0,0,48,48H488a8,8,0,0,0,8-8V120A7.994,7.994,0,0,0,495.155,116.422ZM90.408,226.53A36.349,36.349,0,0,1,66.4,200h42.409l37.714,67.885A8,8,0,0,0,153.52,272h28.96v58.315c-1.708.57-3.407,1.179-5.086,1.872a60.692,60.692,0,0,1-51.975-2.607l-11.9-6.371V258.6A33.758,33.758,0,0,0,90.408,226.53ZM300.944,64H443.056l-24,48H276.944ZM480,280H432V184h48Zm-64,2.047-19.354,5.8c.23-2.588.354-5.206.354-7.852a88.024,88.024,0,0,0-41.946-74.956L416,186.753ZM381,280a72.107,72.107,0,0,1-64,71.559V335.43a56.005,56.005,0,0,0,0-110.86V208.441A72.107,72.107,0,0,1,381,280Zm-32,0a40.067,40.067,0,0,1-32.04,39.2V240.8A40.067,40.067,0,0,1,349,280ZM158.227,256l-31.111-56H288.65l-24.889,56Zm40.253,16h16v54.753a76.063,76.063,0,0,0-16,.046Zm32,0h38.48a8,8,0,0,0,7.311-4.751L300.96,211.7V323.2l-12.427,6.633A60.761,60.761,0,0,1,237.2,332.64l-1.865-.747c-1.6-.643-3.225-1.209-4.853-1.74Zm86.48,176V367.636A88.211,88.211,0,0,0,393.2,305.589l22.8-6.838V480H304.7A47.8,47.8,0,0,0,316.96,448Zm145.287-5a8,8,0,0,0-12.494,0L432,465.194V296h48V465.194Zm9.108,37h-30.71L456,460.806ZM480,168H432V121.889l24-48,24,48ZM304,32H448V48H304Zm-32,96H416v42.048l-83.647,25.1a87.452,87.452,0,0,0-15.393-2.787V192c0-.08-.01-.158-.012-.238,0-.125-.009-.25-.019-.376-.013-.168-.033-.334-.055-.5-.01-.067-.012-.135-.023-.2l-.359-2.151A62.642,62.642,0,0,0,272,138.469ZM182.48,72h48V88h-48Zm16,32h16v32h-16ZM160,152h94.48a46.7,46.7,0,0,1,44.458,32h-183.4A46.7,46.7,0,0,1,160,152ZM80,264a16.008,16.008,0,0,1-15.08-21.357,8,8,0,0,0-7.71-10.671l-.528.014c-.227.006-.454.014-.682.014a24,24,0,0,1-11.787-44.909,8,8,0,0,0,3.995-7.96A25.161,25.161,0,0,1,48,176a24,24,0,1,1,46.623,8H57.52a8,8,0,0,0-8,8,52.329,52.329,0,0,0,35.828,49.708,17.77,17.77,0,0,1,10.39,9.138A16.055,16.055,0,0,1,80,264ZM264,480H145.52a32.036,32.036,0,0,1-32-32V341.357l4.348,2.328a76.635,76.635,0,0,0,65.628,3.292,60.583,60.583,0,0,1,45.884-.233l1.866.748a76.732,76.732,0,0,0,64.822-3.542l4.892-2.611V448a32.036,32.036,0,0,1-32,32Z"/><path d="M72,316a28,28,0,1,0-28,28A28.032,28.032,0,0,0,72,316Zm-40,0a12,12,0,1,1,12,12A12.013,12.013,0,0,1,32,316Z"/><path d="M60,360a28,28,0,1,0,28,28A28.032,28.032,0,0,0,60,360Zm0,40a12,12,0,1,1,12-12A12.013,12.013,0,0,1,60,400Z"/></g></svg>
