<?xml version="1.0"?>
<svg xmlns="http://www.w3.org/2000/svg" viewBox="0 0 512 512" width="512" height="512"><g id="out_line" data-name="out line"><path d="M296,72a8,8,0,0,0-5.657,2.343L276.686,88H264V80h8a8,8,0,0,0,8-8V40a8,8,0,0,0-8-8H240a8,8,0,0,0-8,8V72a8,8,0,0,0,8,8h8v8H224a8,8,0,0,0-8,8v16a8,8,0,0,0,16,0v-8h16v24H136a8,8,0,0,0,0,16h8.38a89.433,89.433,0,0,0,36.5,64H180a28.032,28.032,0,0,0-28,28v4H112a8,8,0,0,0-8,8v32a8,8,0,0,0,8,8h16V448H112a8,8,0,0,0-8,8v32a8,8,0,0,0,8,8H400a8,8,0,0,0,8-8V456a8,8,0,0,0-8-8H384V288h16a8,8,0,0,0,8-8V248a8,8,0,0,0-8-8H360v-4a28.032,28.032,0,0,0-28-28h-.884a89.433,89.433,0,0,0,36.5-64H376a8,8,0,0,0,0-16H264V104h16a8,8,0,0,0,5.657-2.343L299.314,88H424a8,8,0,0,0,8-8V67.313l5.657-5.656A8,8,0,0,0,440,56V34a18.021,18.021,0,0,0-18-18H394a18.021,18.021,0,0,0-18,18V56a8,8,0,0,0,2.343,5.657L384,67.313V72Zm96,392v16H120V464ZM144,448V288H368V448ZM392,256v16H120V256Zm-60-32a12.013,12.013,0,0,1,12,12v4H168v-4a12.013,12.013,0,0,1,12-12Zm19.554-80a72.966,72.966,0,0,1-11.623,32H232a8,8,0,0,0,0,16h93.64a72.174,72.174,0,0,1-20.884,12.173L294.549,208h-77.1l-10.207-3.827A72.174,72.174,0,0,1,186.36,192H200a8,8,0,0,0,0-16H172.069a72.966,72.966,0,0,1-11.623-32ZM248,64V48h16V64ZM392,34a2,2,0,0,1,2-2h28a2,2,0,0,1,2,2V52.687l-5.657,5.656A8,8,0,0,0,416,64v8H400V64a8,8,0,0,0-2.343-5.657L392,52.687Z"/><path d="M344,304H168a8,8,0,0,0-8,8V424a8,8,0,0,0,8,8H344a8,8,0,0,0,8-8V312A8,8,0,0,0,344,304Zm-8,112H176V320H336Z"/><path d="M256,400a48.054,48.054,0,0,0,48-48v-8a8,8,0,0,0-8-8H216a8,8,0,0,0-8,8v8A48.054,48.054,0,0,0,256,400Zm32-48a32,32,0,0,1-64,0Z"/></g></svg>
