<svg height="512" viewBox="0 0 512 512" width="512" xmlns="http://www.w3.org/2000/svg"><g id="out_line" data-name="out line"><path d="m488 40a24.027 24.027 0 0 0 -24-24h-39.153a24 24 0 0 0 -8.847 46.3v33.7s-81.911.172-82.809.509l-53.191 19.947v-4.456a8 8 0 0 0 -8-8h-32a8 8 0 0 0 -8 8v9.039c-34.77 3.079-72 13.717-72 34.961v13.35a90.893 90.893 0 0 0 40 75.041v19.609h-16a16.019 16.019 0 0 0 -16 16v194a22.025 22.025 0 0 0 22 22h132a22.025 22.025 0 0 0 22-22v-194a16.019 16.019 0 0 0 -16-16h-16v-19.606a90.392 90.392 0 0 0 40-75.044v-13.35c0-16.291-21.9-26.345-47.785-31.537l33.235-12.463h126.55a8 8 0 0 0 8-8v-41.376a24.039 24.039 0 0 0 16-22.624zm-240 120h16v15.878c-5.3.158-10.692.159-16 0zm0-40h16v24h-16zm-16 17.09v37.821c-39.221-3.585-56-14.71-56-18.911s16.779-15.325 56-18.91zm96 299.6-25.372-25.372a65.942 65.942 0 0 0 -93.256 0l-25.372 25.368v-108.686h144zm-11.313 11.31h-121.374l25.374-25.373a49.94 49.94 0 0 1 70.626 0zm11.313 26a6.006 6.006 0 0 1 -6 6h-132a6.006 6.006 0 0 1 -6-6v-10h144zm0-193v7h-80v16h80v8h-144v-8h32v-16h-32v-7a1 1 0 0 1 1-1h142a1 1 0 0 1 1 1zm-28.113-47.861a8 8 0 0 0 -3.887 6.861v24h-80v-24a8 8 0 0 0 -3.885-6.86 74.815 74.815 0 0 1 -35.686-55.94c15.829 8.519 40.618 13 63.094 14.315 5.381.321 10.925.484 16.477.484s11.1-.163 16.466-.484c22.485-1.312 47.279-5.8 63.109-14.318a74.325 74.325 0 0 1 -35.688 55.941zm36.113-77.139c0 4.2-16.776 15.324-56 18.91v-37.82c39.221 3.585 56 14.71 56 18.91zm120-60h-24v-32h24zm8-48h-39.153a8 8 0 0 1 0-16h39.153a8 8 0 0 1 0 16z"/><path d="m232 424h16v16h-16z"/><path d="m280 344h16v16h-16z"/><path d="m216 344h16v16h-16z"/><path d="m248 360h16v16h-16z"/><path d="m296 376h16v16h-16z"/></g></svg>