<?xml version="1.0"?>
<svg xmlns="http://www.w3.org/2000/svg" viewBox="0 0 512 512" width="512" height="512"><g id="out_line" data-name="out line"><path d="M426.482,413.724c-10.184-4.648-20.61-4.611-29.359.1a30.5,30.5,0,0,0-13.553,15.03c-10.079-8.937-26.272-11.2-41.8-5.622L336,255.725A8,8,0,0,0,328,248V224a8,8,0,0,0-8-8h-8V200a8,8,0,0,0,7.155-4.422l24-48C343.711,146.467,344,34,344,34a18.021,18.021,0,0,0-18-18H218a18.021,18.021,0,0,0-18,18s.289,112.467.845,113.578l24,48A8,8,0,0,0,232,200v16h-8a8,8,0,0,0-8,8v24a8,8,0,0,0-7.993,7.653L207.3,272H192V236a28.032,28.032,0,0,0-28-28H108a28.032,28.032,0,0,0-28,28V350a18.021,18.021,0,0,0,18,18h76a18.021,18.021,0,0,0,17.882-16h11.934l-1.392,32H152a8,8,0,0,0-7.155,4.422L139.056,400H112a8,8,0,0,0,0,16h32a8,8,0,0,0,7.155-4.422L156.944,400h44.783l-.9,20.693a17.925,17.925,0,0,1-13.243,16.579l-60.844,16.6A20.038,20.038,0,0,0,112,473.17V488a8,8,0,0,0,8,8H336a8,8,0,0,0,2.232-.324,44.614,44.614,0,0,0,4.824.26,52.061,52.061,0,0,0,25.184-6.765h0a51.935,51.935,0,0,0,19.22-18.243c5.427,9.557,13.345,17.064,22.423,21.206a36.414,36.414,0,0,0,15.108,3.459,29.828,29.828,0,0,0,14.251-3.56c8.749-4.712,14.517-13.4,16.242-24.458,1.6-10.241-.517-21.439-5.951-31.529S435.912,418.026,426.482,413.724ZM176,350a2,2,0,0,1-2,2H98a2,2,0,0,1-2-2V320h80Zm0-46H96V272h80Zm0-48H96V236a12.013,12.013,0,0,1,12-12h56a12.013,12.013,0,0,1,12,12ZM341.357,440.94a36.592,36.592,0,0,1,17.555-4.775c5.606,0,10.616,1.566,14.014,4.6l-7.283,4.064a19.533,19.533,0,0,1-14.686,1.707,35.15,35.15,0,0,0-16.525-.678A38.929,38.929,0,0,1,341.357,440.94ZM216,34a2,2,0,0,1,2-2H326a2,2,0,0,1,2,2V48H216Zm0,108.111V64H328v78.111L307.056,184H236.944ZM296,200v16H248V200Zm-64,32h80v16H232ZM192,336V288h14.6l-2.088,48ZM312.109,479.69c.06.107.129.2.189.31H128v-6.83a4.005,4.005,0,0,1,2.945-3.862l60.847-16.6a33.871,33.871,0,0,0,25.02-31.321L223.661,264h96.61l5.789,167.994C310.057,444.745,303.754,464.7,312.109,479.69Zm48.341-4.5h0c-13.454,7.5-29.191,5.992-34.365-3.294a13.344,13.344,0,0,1-1.474-4.206l7.285-4.056a19.17,19.17,0,0,1,14.679-1.714,35.344,35.344,0,0,0,26.853-3.117l2.974-1.66C374.175,463.9,368.457,470.731,360.45,475.2ZM406.66,452.7a35.085,35.085,0,0,0-.921,16.564,39.654,39.654,0,0,1-4.821-7.041c-3.789-7.037-5.291-14.664-4.228-21.479a18.953,18.953,0,0,1,4.522-10.068l3.948,7.331a19.311,19.311,0,0,1,1.5,14.693Zm33.015,12.406c-.935,6-3.783,10.554-8.02,12.836a13.459,13.459,0,0,1-4.234,1.4l-3.949-7.329a19.139,19.139,0,0,1-1.489-14.706,35.311,35.311,0,0,0-2.739-26.89l-1.63-3.026q1.107.379,2.226.888c6.274,2.864,11.816,8.316,15.606,15.352h0C439.235,450.668,440.737,458.3,439.675,465.109Z"/><path d="M248,160a8,8,0,0,0,5.657-13.657l-8-8a8,8,0,0,0-11.314,11.314l8,8A7.976,7.976,0,0,0,248,160Z"/><path d="M264,112a7.976,7.976,0,0,0,5.657-2.343l8-8a8,8,0,0,0-11.314-11.314l-8,8A8,8,0,0,0,264,112Z"/><path d="M306.343,117.657a8,8,0,0,0,11.314-11.314l-8-8a8,8,0,0,0-11.314,11.314Z"/><path d="M240,128a8,8,0,0,0,5.657-13.657l-8-8a8,8,0,0,0-11.314,11.314l8,8A7.976,7.976,0,0,0,240,128Z"/><path d="M306.343,149.657a8,8,0,1,0,11.314-11.314l-8-8a8,8,0,0,0-11.314,11.314Z"/><path d="M268.422,160.845a8,8,0,1,0,7.156,14.31l16-8a8,8,0,1,0-7.156-14.31Z"/><path d="M260.422,128.845a8,8,0,1,0,7.156,14.31l16-8a8,8,0,1,0-7.156-14.31Z"/></g></svg>
