<svg height="512" viewBox="0 0 512 512" width="512" xmlns="http://www.w3.org/2000/svg"><g id="out_line" data-name="out line"><path d="m456 376h-72v-216h16a8 8 0 0 0 8 8h32a8 8 0 0 0 8-8v-64a8 8 0 0 0 -8-8h-32a8 8 0 0 0 -8 8h-20.361a91.721 91.721 0 0 0 -87.639-64h-120a92.038 92.038 0 0 0 -87.655 64h-20.345a8 8 0 0 0 -8-8h-32a8 8 0 0 0 -8 8v64a8 8 0 0 0 8 8h32a8 8 0 0 0 8-8h16v256a8 8 0 0 0 8 8h102.083a35.991 35.991 0 0 0 29.917 16h4v8a24.028 24.028 0 0 0 24 24h8a24 24 0 0 0 48 0v-16a8 8 0 0 0 -8-8h-24v-10.1a36.264 36.264 0 0 0 17.925-13.9h46.075v8a8 8 0 0 0 8 8h112a32 32 0 0 0 0-64zm-40-272h16v48h-16zm-32 8h16v32h-16zm-336 40h-16v-48h16zm32-8h-16v-32h16zm38.256-73.743a75.506 75.506 0 0 1 53.744-22.257h120a75.773 75.773 0 0 1 70.678 48h-261.354a76.024 76.024 0 0 1 16.932-25.743zm137.744 385.743h-8a8.009 8.009 0 0 1 -8-8v-8h16zm32 8v8a8 8 0 0 1 -16 0v-8zm-8-60a19.784 19.784 0 0 1 -1.928 8.57 20.094 20.094 0 0 1 -18.072 11.43h-40a20.023 20.023 0 0 1 -20-20v-28h80zm-67.031-44a30.834 30.834 0 0 1 54.062 0zm123.031 48h-40.218c.145-1.32.218-16 .218-16h40zm32 16h-16v-32h16zm0-48h-72v-8a8 8 0 0 0 -8-8h-3.056l-3.055-6.112a46.834 46.834 0 0 0 -83.778 0l-3.055 6.112h-3.056a8 8 0 0 0 -8 8v36a36.184 36.184 0 0 0 .228 4h-88.228v-218.9a140.254 140.254 0 0 0 124 74.9h24a139.611 139.611 0 0 0 94.935-37.1c1.368-1.262 2.734-2.575 4.062-3.9a140.168 140.168 0 0 0 25-33.971zm-115.22-200h-41.56a114.411 114.411 0 0 0 -80.972 33.539 122.99 122.99 0 0 1 -28.937-49.539h261.368a123.5 123.5 0 0 1 -28.928 49.539 114.4 114.4 0 0 0 -80.971-33.539zm69.213 44.4a123.612 123.612 0 0 1 -77.993 27.6h-24a123.612 123.612 0 0 1 -77.993-27.6 98.428 98.428 0 0 1 69.213-28.4h41.56a98.428 98.428 0 0 1 69.213 28.4zm46.007-76.4h-272v-32h272zm88 280h-72v-32h72a16 16 0 0 1 0 32z"/><path d="m192 208h16v16h-16z"/><path d="m232 224h16v16h-16z"/><path d="m264 208h16v16h-16z"/><path d="m264 312h16v16h-16z"/><path d="m200 304h16v16h-16z"/></g></svg>