<?xml version="1.0"?>
<svg xmlns="http://www.w3.org/2000/svg" viewBox="0 0 512 512" width="512" height="512"><g id="out_line" data-name="out line"><path d="M476.687,465.372,420.119,408.8l5.656-5.657a8,8,0,0,0,0-11.314L131.618,97.677a8,8,0,0,0-11.314,0l-5.657,5.656L104,92.681A32.058,32.058,0,0,0,99.055,53.8L66.527,21.271a18.024,18.024,0,0,0-25.457,0l-19.8,19.8a18.024,18.024,0,0,0,0,25.457L53.8,99.055A32.026,32.026,0,0,0,92.685,104l10.648,10.648L97.677,120.3a8,8,0,0,0,0,11.314L391.833,425.775a8,8,0,0,0,11.314,0l5.657-5.656,56.568,56.568,16.971,16.97a8,8,0,0,0,11.314-11.314ZM65.113,87.74,32.586,55.213a2,2,0,0,1,0-2.828l19.8-19.8a2,2,0,0,1,2.828,0L87.74,65.113a16,16,0,0,1,0,22.626h0a16,16,0,0,1-22.626,0Zm309.75,275.808-11.315,11.315L148.589,159.9,159.9,148.589Zm-248.9-248.9,22.627,22.628-11.313,11.313-22.628-22.627Zm248.9,271.53,11.314-11.314,22.628,22.627-5.638,5.638-.021.018-.018.021-5.638,5.638Z"/><path d="M357.755,442.745a8,8,0,0,0,0-11.314l-248.9-248.9a8,8,0,0,0-11.315,0l-5.657,5.657-12.029-12.03a32.061,32.061,0,0,0-4.941-38.882L63.6,125.961a8,8,0,1,0-11.315,11.314L63.6,148.588a16,16,0,0,1,4.126,15.44l-21.1-21.1a8,8,0,0,0-11.315,11.314l21.1,21.1a16,16,0,0,1-15.438-4.126L29.657,159.9a8,8,0,0,0-11.314,11.315L29.656,182.53a32.069,32.069,0,0,0,38.883,4.941L80.568,199.5l-5.657,5.657a8,8,0,0,0,0,11.315l248.9,248.9a8,8,0,0,0,11.315,0l5.657-5.657,33.941,33.941,11.314-11.314L352.1,448.4Zm-50.912-39.6-11.315,11.315-169.705-169.7,11.315-11.315ZM103.2,199.5l22.627,22.627-11.314,11.314L91.882,210.814ZM329.47,448.4l-22.627-22.627,11.314-11.314,22.627,22.627Z"/><path d="M144,48a16.012,16.012,0,0,0,4.128-.557l44.44,44.439-5.657,5.657a8,8,0,0,0,0,11.315l248.9,248.9a8,8,0,0,0,11.315,0l5.657-5.657,29.559,29.559a8,8,0,0,0,11.314-11.314L464.1,340.784l5.657-5.657a8,8,0,0,0,0-11.315l-248.9-248.9a8,8,0,0,0-11.315,0l-5.657,5.657-44.439-44.44A15.991,15.991,0,1,0,144,48Zm93.823,89.138,11.315-11.315L418.843,295.528l-11.315,11.315ZM441.47,340.784l-22.627-22.627,11.314-11.314,22.627,22.627ZM237.823,114.509l-11.314,11.314L203.882,103.2,215.2,91.882Z"/></g></svg>
