<?xml version="1.0"?>
<svg xmlns="http://www.w3.org/2000/svg" viewBox="0 0 512 512" width="512" height="512"><g id="out_line" data-name="out line"><path d="M434,128H408a7.993,7.993,0,0,0-8-8H234.329L177.776,84.012A127.787,127.787,0,0,0,109.056,64H96A128.8,128.8,0,0,0,19.2,89.6a8,8,0,0,0-.857,12.057l29.966,29.966L72.277,383.292A98,98,0,0,0,169.836,472H286.164a98,98,0,0,0,97.559-88.708L401.941,192H430a2,2,0,0,1,2,2V320a32,32,0,0,0,64,0V190A62.07,62.07,0,0,0,434,128ZM36.459,97.146A112.813,112.813,0,0,1,96,80h13.056a111.816,111.816,0,0,1,60.13,17.51L204.527,120H59.314ZM367.8,381.774A82,82,0,0,1,286.164,456H169.836a82,82,0,0,1-81.631-74.226L64.8,136H391.2ZM480,320a16,16,0,0,1-32,0V194a18.021,18.021,0,0,0-18-18H403.465l3.047-32H434a46.052,46.052,0,0,1,46,46Z"/><path d="M224,176V400a8,8,0,0,0,8,8h48a8,8,0,0,0,0-16H240V360h40a8,8,0,0,0,0-16H240V312h40a8,8,0,0,0,0-16H240V264h40a8,8,0,0,0,0-16H240V216h40a8,8,0,0,0,0-16H240V176a8,8,0,0,0-16,0Z"/><path d="M179,192H141a13.015,13.015,0,0,0-13,13v22a13.015,13.015,0,0,0,13,13h38a13.015,13.015,0,0,0,13-13V205A13.015,13.015,0,0,0,179,192Zm-3,32H144V208h32Z"/><path d="M179,272H141a13.015,13.015,0,0,0-13,13v22a13.015,13.015,0,0,0,13,13h38a13.015,13.015,0,0,0,13-13V285A13.015,13.015,0,0,0,179,272Zm-3,32H144V288h32Z"/><path d="M179,352H141a13.015,13.015,0,0,0-13,13v22a13.015,13.015,0,0,0,13,13h38a13.015,13.015,0,0,0,13-13V365A13.015,13.015,0,0,0,179,352Zm-3,32H144V368h32Z"/></g></svg>
