<svg height="512" viewBox="0 0 512 512" width="512" xmlns="http://www.w3.org/2000/svg"><g id="out_line" data-name="out line"><path d="m256 160a32 32 0 1 0 32 32 32.036 32.036 0 0 0 -32-32zm0 48a16 16 0 1 1 16-16 16.019 16.019 0 0 1 -16 16z"/><path d="m184 168a24 24 0 1 0 24 24 24.027 24.027 0 0 0 -24-24zm0 32a8 8 0 1 1 8-8 8.009 8.009 0 0 1 -8 8z"/><path d="m120 168a24 24 0 1 0 24 24 24.027 24.027 0 0 0 -24-24zm0 32a8 8 0 1 1 8-8 8.009 8.009 0 0 1 -8 8z"/><path d="m392 168a24 24 0 1 0 24 24 24.027 24.027 0 0 0 -24-24zm0 32a8 8 0 1 1 8-8 8.009 8.009 0 0 1 -8 8z"/><path d="m328 168a24 24 0 1 0 24 24 24.027 24.027 0 0 0 -24-24zm0 32a8 8 0 1 1 8-8 8.009 8.009 0 0 1 -8 8z"/><path d="m476 88a20 20 0 0 0 0-40h-6.721a7.959 7.959 0 0 0 -5.279-2h-48a8 8 0 0 0 -8 8v1.678a128.583 128.583 0 0 0 5.1 35.907 8 8 0 0 0 -5.1 7.449v1.678a128.625 128.625 0 0 0 4.916 35.288h-28.938a39.788 39.788 0 0 0 8.022-24v-16a7.985 7.985 0 0 0 -3.4-6.541 39.755 39.755 0 0 0 8.561-18.651l2.725-15.766a8 8 0 0 0 -6.521-9.247l-63.065-10.895-7.883-1.362a24 24 0 0 0 -8.175 47.3l7.883 1.362h.022a40.285 40.285 0 0 0 3.639 5.8h-13.786a24 24 0 0 0 0 48h-48.022a39.788 39.788 0 0 0 8.022-24v-16a8 8 0 0 0 -8-8h-1.41a39.939 39.939 0 0 0 8.537-34l-3.312-15.654a8 8 0 0 0 -9.482-6.171l-62.612 13.244-7.827 1.657a23.969 23.969 0 0 0 -7.519 43.938 23.994 23.994 0 0 0 11.625 44.986h-48.022a39.788 39.788 0 0 0 8.022-24v-16a8 8 0 0 0 -8-8h-.022a39.788 39.788 0 0 0 8.022-24v-16a8 8 0 0 0 -8-8h-72a24 24 0 0 0 0 48 24 24 0 0 0 0 48h-48a8 8 0 0 0 -8 8v96a8 8 0 0 0 8 8h24v104a8 8 0 0 0 -8 8v64a8 8 0 0 0 8 8h33.223l6.886 41.315a8 8 0 0 0 7.891 6.685h32a8 8 0 0 0 7.891-6.685l6.886-41.315h226.446l6.886 41.315a8 8 0 0 0 7.891 6.685h32a8 8 0 0 0 7.891-6.685l6.886-41.315h41.223a8 8 0 0 0 8-8v-64a8 8 0 0 0 -8-8h-8v-104h24a8 8 0 0 0 8-8v-96a8 8 0 0 0 -8-8h-12a20 20 0 0 0 0-40h-4.6a8.021 8.021 0 0 0 -4.5-4.415c.346-1.191.679-2.386.989-3.585zm-4.271-24h4.271a4 4 0 0 1 0 8h-5.038q.507-3.981.767-8zm-153.4-6.817a39.969 39.969 0 0 0 -.569 8.019l-.794-.137a8 8 0 0 1 2.723-15.765zm137.496 4.817a112.5 112.5 0 0 1 -5.468 28.966h-20.713a112.5 112.5 0 0 1 -5.469-28.966zm0 45.034a112.5 112.5 0 0 1 -5.468 28.966h-20.713a112.507 112.507 0 0 1 -5.469-28.966zm-121.732-47.127 1.363-7.883 47.3 8.175-1.362 7.884a24 24 0 0 1 -47.3-8.176zm-6.093 44.093h29.6.228s.17 0 .255 0h17.917v8a24 24 0 0 1 -48 0zm-24 8a8.009 8.009 0 0 1 8-8v8a40.028 40.028 0 0 0 .805 8h-.805a8.009 8.009 0 0 1 -8-8zm-50.182-62.518 1.656 7.828a24 24 0 0 1 -46.961 9.934l-1.656-7.827zm2.182 54.518v8a24 24 0 0 1 -48 0v-8zm-69.846-37.808a7.948 7.948 0 0 1 5.05-3.463l1.656 7.827a40.013 40.013 0 0 0 2.451 7.658l-.8.168a8 8 0 0 1 -8.362-12.19zm-2.154 45.808a8.009 8.009 0 0 1 8-8v8a40.028 40.028 0 0 0 .805 8h-.805a8.009 8.009 0 0 1 -8-8zm-96-56h48v8a24 24 0 0 1 -48 0zm0 48h48v8a24 24 0 0 1 -48 0zm-24-40a8.009 8.009 0 0 1 8-8v8a40.028 40.028 0 0 0 .805 8h-.805a8.009 8.009 0 0 1 -8-8zm0 48a8.009 8.009 0 0 1 8-8v8a40.028 40.028 0 0 0 .805 8h-.805a8.009 8.009 0 0 1 -8-8zm57.223 352h-18.446l-5.333-32h29.112zm288 0h-18.446l-5.333-32h29.112zm54.777-48h-408v-48h408zm-369.94-136.239 25.94 6.485v9.754h-8a8 8 0 0 0 -8 8v8a24 24 0 0 0 48 0v-8a8 8 0 0 0 -8-8h-8v-16a8 8 0 0 0 -6.06-7.761l-25.94-6.485v-17.754h48v8a24.027 24.027 0 0 0 24 24v8a8 8 0 0 0 16 0v-8a24.027 24.027 0 0 0 24-24v-8h80v8a24.027 24.027 0 0 0 24 24v8a8 8 0 0 0 16 0v-8a24.027 24.027 0 0 0 24-24v-8h88v104h-80a24 24 0 0 0 0-48h-72a8 8 0 0 0 -8 8v16a39.788 39.788 0 0 0 8.022 24h-232.022v-104h24v24a8 8 0 0 0 6.06 7.761zm41.94 32.239a8 8 0 0 1 -16 0zm32-56v-8h32v8a8.009 8.009 0 0 1 -8 8h-16a8.009 8.009 0 0 1 -8-8zm144 0v-8h32v8a8.009 8.009 0 0 1 -8 8h-16a8.009 8.009 0 0 1 -8-8zm55.2 80a40.028 40.028 0 0 0 .805-8v-8a8 8 0 0 1 0 16zm-15.2-16v8a24 24 0 0 1 -48 0v-8zm119.505-208h4.495a4 4 0 0 1 0 8h-5.45q.602-3.979.955-8zm8.5 40v80h-448.005v-80z"/><path d="m448 168h16v16h-16z"/><path d="m448 200h16v16h-16z"/><path d="m48 168h16v48h-16z"/><path d="m248.452 304h15.548a32.036 32.036 0 0 0 32-32 8 8 0 0 0 -16 0 16.019 16.019 0 0 1 -16 16h-15.548a8.328 8.328 0 0 1 -8.443-7.6 8 8 0 0 1 7.991-8.4 8.039 8.039 0 0 1 6.935 4.006 8 8 0 1 0 13.849-8.012 24 24 0 0 0 -38.151-4.559 23.812 23.812 0 0 0 -6.606 17.715 24.2 24.2 0 0 0 24.425 22.85z"/><path d="m392 304h15.548a24.2 24.2 0 0 0 24.425-22.85 23.812 23.812 0 0 0 -6.606-17.715 24 24 0 0 0 -38.151 4.559 8 8 0 1 0 13.849 8.012 8.039 8.039 0 0 1 6.935-4.006 8 8 0 0 1 7.991 8.4 8.328 8.328 0 0 1 -8.443 7.6h-15.548a16.019 16.019 0 0 1 -16-16 8 8 0 0 0 -16 0 32.036 32.036 0 0 0 32 32z"/><path d="m72 384h376v16h-376z"/></g></svg>