<?xml version="1.0"?>
<svg xmlns="http://www.w3.org/2000/svg" viewBox="0 0 512 512" width="512" height="512"><g id="out_line" data-name="out line"><path d="M461.657,170.343l-40-40a8.005,8.005,0,0,0-6.65-2.281l-47.279,5.911a7.907,7.907,0,0,0-4.86-5.43l0-.01L282.554,97.642l5.036-15.113A8.025,8.025,0,0,0,288,80V56a8,8,0,0,0-8-8H232a8,8,0,0,0-8,8V80a8.025,8.025,0,0,0,.41,2.529l5.036,15.113L150.515,128H144V116.844a102.941,102.941,0,0,0-17.344-57.282,8,8,0,0,0-13.312,8.876A86.991,86.991,0,0,1,128,116.844V128h-8V115.777A39.784,39.784,0,0,0,97.889,80a17.888,17.888,0,0,1,0-32,31.7,31.7,0,0,1,28.222,0l14.311,7.155a8,8,0,0,0,7.156-14.31l-14.311-7.156a47.784,47.784,0,0,0-42.534,0,33.889,33.889,0,0,0,0,60.622A23.868,23.868,0,0,1,104,115.777V128a8,8,0,0,0-6.021,13.268l53.328,60.942,5.186,46.673v0l3.556,32A8,8,0,0,0,168,288h8v32a8,8,0,0,0-7.874,6.585L145.141,454.5c0,.025-.009.05-.013.075l0,.009c0,.016,0,.031-.006.047-.042.243-.075.489-.095.738-.007.092,0,.183-.01.275-.007.168-.016.336-.013.506s.019.331.032.5c.008.094.01.187.021.281.028.244.07.484.12.721,0,.02,0,.04.01.059l0,.012.015.07,6.983,31.918A8,8,0,0,0,160,496H352a8,8,0,0,0,7.815-6.291l6.983-31.918.015-.07,0-.012c0-.019.006-.039.01-.059.05-.237.092-.477.12-.721.011-.094.013-.187.021-.281.013-.166.029-.33.032-.5s-.006-.338-.013-.506c0-.092,0-.183-.01-.275-.02-.249-.053-.5-.1-.738,0-.016,0-.031-.006-.047l0-.009c0-.025-.008-.05-.013-.075L343.874,326.585A8,8,0,0,0,336,320V288h8a8,8,0,0,0,7.951-7.117l3.556-32v0l6.47-58.229,43.194-6.169L416,195.313v48.158L379.884,265.14A8,8,0,0,0,376,272v24a8,8,0,0,0,8,8h24a7.993,7.993,0,0,0,4.438-1.344l48-32A8,8,0,0,0,464,264V176A8,8,0,0,0,461.657,170.343ZM340.212,241.649a95.447,95.447,0,0,1-42.08.2L303.568,144h47.494ZM231.568,272l-.786-14.146a154.646,154.646,0,0,0,50.436,0L280.432,272ZM256,104.571,316.915,128H195.085ZM224.457,144h63.086l-5.414,97.458a139.494,139.494,0,0,1-52.258,0Zm-63.519,0h47.494l5.436,97.852a95.432,95.432,0,0,1-42.08-.2ZM240,78.7V64h32V78.7l-4.395,13.19-8.733-3.359a8,8,0,0,0-5.744,0L244.4,91.892ZM121.631,144H144.84l3.375,30.38Zm52.013,114.355a111.368,111.368,0,0,0,41.122-.347L215.543,272H175.16ZM329.31,336l3.385,18.84a36.571,36.571,0,0,0-34.559,3.4L296.58,336ZM174.9,379.343a20.752,20.752,0,0,1,39.248,9.377q0,.646-.044,1.314c-.01.162-.006.322-.006.483-.026.308-.061.612-.08.921L210.484,448H162.566Zm55.086,13.094a26.063,26.063,0,0,1,52.024,0L285.484,448H226.516ZM301.516,448l-3.536-56.562c-.04-.653-.1-1.3-.169-1.946.024-.254.039-.511.039-.772a20.752,20.752,0,0,1,39.248-9.377L349.434,448ZM280.54,336l1.771,25.291a41.9,41.9,0,0,0-52.622,0L231.46,336Zm-66.676,22.238a36.571,36.571,0,0,0-34.559-3.4L182.69,336h32.73ZM162.939,464h46.545l-1,16H166.439Zm61.577,16,1-16h60.968l1,16Zm79,0-1-16h46.545l-3.5,16ZM320,320H192V288H320Zm-23.543-48,.777-13.992a111.368,111.368,0,0,0,41.122.347L336.84,272ZM448,259.719,405.578,288H392V276.53l36.116-21.67A8,8,0,0,0,432,248V192a8,8,0,0,0-2.343-5.657l-16-16a7.994,7.994,0,0,0-6.788-2.262l-43.067,6.15,2.663-23.976,46.645-5.831L448,179.313Z"/><path d="M160,32h8a16,16,0,0,1,0,32,8,8,0,0,0,0,16,32,32,0,0,0,0-64h-8a8,8,0,0,0,0,16Z"/><path d="M41.067,55.268c.1,0,.2.005.307.005a8,8,0,0,0,7.988-7.7A17.79,17.79,0,0,1,59.845,31.958l1.72-.781a8,8,0,0,0-6.611-14.57l-1.721.78A33.7,33.7,0,0,0,33.374,46.973,8,8,0,0,0,41.067,55.268Z"/><path d="M68.81,106.691a8,8,0,1,0-11.731,10.88l4.506,4.859a30.425,30.425,0,0,1,8.15,21.979,8,8,0,0,0,7.694,8.3c.1,0,.2,0,.306,0a8,8,0,0,0,7.989-7.7,46.318,46.318,0,0,0-12.408-33.46Z"/><path d="M53.724,82.106l-2.253-2.429a11.248,11.248,0,0,1-3.012-8.12,8,8,0,1,0-15.988-.6,27.136,27.136,0,0,0,7.268,19.6l2.253,2.43a8,8,0,1,0,11.732-10.88Z"/></g></svg>
