<?xml version="1.0"?>
<svg xmlns="http://www.w3.org/2000/svg" viewBox="0 0 512 512" width="512" height="512"><g id="out_line" data-name="out line"><path d="M55.349,487.421C72.735,492.953,95.7,496,120,496s47.265-3.047,64.651-8.579C210.561,479.176,216,467.958,216,460c0-11.572-11.335-21.2-32.242-27.7a79.64,79.64,0,0,0,5.516-8.3H208a24,24,0,0,0,0-48h-9.279c-2.5-6.267-9.249-13.314-25.147-18.925q-2.684-.946-5.574-1.787V192a24.039,24.039,0,0,1,16.65-22.844,7.968,7.968,0,0,0,5.548,10.907l38.97,9.011a7.83,7.83,0,0,0,1.356.181l29.927,47.926a23,23,0,0,0,34.328,5.407l59.2-49.874h0a23,23,0,0,0,.5-34.748l-58.589-52.3,20.987-17.678a19.472,19.472,0,0,0,7.407,2.649l17.872,16.593-1.611,20.136a8,8,0,0,0,7.337,8.613c.217.017.432.025.647.025a8,8,0,0,0,7.966-7.362l.889-11.121A23.845,23.845,0,0,0,368,120H480a8,8,0,0,0,8-8V56a8,8,0,0,0-8-8H442.422L407.061,24.426A30.058,30.058,0,0,0,377,22.555L318.137,51.987a20.633,20.633,0,0,0-10.785,23.1L283.835,94.9l-.853-.76a8,8,0,0,0-10.482-.151l-61.167,51.531-.018.013-8.355,7.041A7.956,7.956,0,0,0,200,152h-8a40.045,40.045,0,0,0-40,40V351.7a196.7,196.7,0,0,0-32-2.525c-20.116,0-39.142,2.8-53.574,7.9C44.584,364.784,40,375.2,40,382.588c0,.295.01.6.026.9-.011.17-.026.339-.026.511a79.38,79.38,0,0,0,16.237,48.305C35.333,438.8,24,448.429,24,460,24,467.958,29.439,479.176,55.349,487.421ZM199.6,392H208a8,8,0,1,1,0,16H196.339A78.734,78.734,0,0,0,199.6,392ZM345.284,88.3l-2.8-2.6,5.321-2.66A23.9,23.9,0,0,0,345.284,88.3Zm-19.992-22,58.867-29.434a14.033,14.033,0,0,1,14.027.873l37.376,24.918A8,8,0,0,0,440,64h32v40H368a8,8,0,0,1,0-16h40a8,8,0,0,0,5.657-13.657l-24-24a8,8,0,0,0-9.235-1.5L329.335,74.388a4.474,4.474,0,0,1-3.752.133,4.556,4.556,0,0,1-1.963-1.567l-.071-.1a4.533,4.533,0,0,1,1.743-6.556Zm44.6,5.7,12.532-6.266L388.687,72ZM276.7,111.376a7.951,7.951,0,0,0,4.582,2.688L343.823,169.9a7,7,0,0,1-.152,10.577l-59.2,49.874a7,7,0,0,1-10.448-1.646L226.933,153.3Zm-62.122,52.335,4.063,6.506-9.247-2.138ZM56,382.588c0-5.053,22.427-17.411,64-17.411a173.487,173.487,0,0,1,32,2.783v6.281l-.4-.079a145.164,145.164,0,0,0-63.261,1.506l-2.284.571a8,8,0,1,0,3.882,15.522l2.284-.572a128.986,128.986,0,0,1,56.241-1.337l9.965,1.993A8,8,0,0,0,168,384V372.135c10.529,3.688,16,7.959,16,10.453C184,387.642,161.573,400,120,400S56,387.642,56,382.588Zm124.34,22.8a64.077,64.077,0,0,1-15.085,23.867c-.538.538-1.076,1.061-1.631,1.565l-.074.068a63.962,63.962,0,0,1-87.1,0l-.074-.068c-.555-.5-1.093-1.027-1.629-1.562a63.777,63.777,0,0,1-15.1-23.876c2.053.936,4.3,1.848,6.779,2.723C80.858,413.194,99.884,416,120,416s39.142-2.806,53.574-7.9C176.048,407.228,178.29,406.318,180.34,405.384ZM68.8,445.447a79.935,79.935,0,0,0,102.408,0C194.741,451.1,200,458.407,200,460c0,1.875-4.938,7.317-20.2,12.174C163.94,477.221,142.7,480,120,480s-43.94-2.779-59.8-7.826C44.938,467.317,40,461.875,40,460,40,458.407,45.259,451.1,68.8,445.447Z"/></g></svg>
