<?xml version="1.0"?>
<svg xmlns="http://www.w3.org/2000/svg" viewBox="0 0 512 512" width="512" height="512"><g id="out_line" data-name="out line"><path d="M252.059,312.55a10.956,10.956,0,0,0,14.015-15.876L256.958,283l-9.115,13.674A10.955,10.955,0,0,0,252.059,312.55Z"/><path d="M252.059,356.55a10.956,10.956,0,0,0,14.015-15.876L256.958,327l-9.115,13.674A10.955,10.955,0,0,0,252.059,356.55Z"/><path d="M106.524,260.988a14.269,14.269,0,0,1,5.476-14V248a8,8,0,0,0,9.569,7.845L152,249.759V272c0,.12.013.236.018.354a135.931,135.931,0,0,0,18.957,193.8c.085.07.172.136.261.2A136,136,0,0,0,360.514,272.986a8.2,8.2,0,0,0,.067-.986V176a8,8,0,0,0-8-8h-3.229A251.325,251.325,0,0,0,376,55.5V24a8,8,0,0,0-8-8H144a8,8,0,0,0-8,8V55.5A251.325,251.325,0,0,0,162.648,168H160a8,8,0,0,0-8,8v30.241l-30.431-6.086A8,8,0,0,0,112,208v8H93.625A29.659,29.659,0,0,0,64,245.625a41.2,41.2,0,0,1-18.384,34.349l-2.054,1.37a8,8,0,1,0,8.876,13.312l2.054-1.37A57.166,57.166,0,0,0,80,245.625,13.64,13.64,0,0,1,93.625,232h11.953l-1.8,1.2a30.258,30.258,0,0,0-12.987,30.684A43.044,43.044,0,0,1,78.4,302.65L66.43,314.258a8,8,0,1,0,11.14,11.484l11.967-11.606A59.01,59.01,0,0,0,106.524,260.988ZM256,480a118.841,118.841,0,0,1-53.968-12.76,105.456,105.456,0,0,0,21.782-5.551,93.9,93.9,0,0,1,64.38,0,105.8,105.8,0,0,0,21.814,5.528A118.842,118.842,0,0,1,256,480Zm76.888-27.878c-2.274.166-4.573.278-6.888.278a92.682,92.682,0,0,1-32.186-5.689,109.89,109.89,0,0,0-75.62,0,92.789,92.789,0,0,1-39.06,5.437,120.123,120.123,0,0,1-17.935-18.56,110.546,110.546,0,0,0,24.863,2.837,107.868,107.868,0,0,0,37.752-6.733,93.9,93.9,0,0,1,64.38,0A108.855,108.855,0,0,0,326,436.4a110.135,110.135,0,0,0,24.8-2.814A119.994,119.994,0,0,1,332.888,452.122Zm30.273-38.088-14.347,3.586A93.891,93.891,0,0,1,326,420.4a92.682,92.682,0,0,1-32.186-5.689,109.888,109.888,0,0,0-75.622,0,94.85,94.85,0,0,1-55.011,2.91l-14.342-3.585a118.947,118.947,0,0,1-7.1-17.283l17.565,4.392a109.665,109.665,0,0,0,64.5-3.455,94.256,94.256,0,0,1,64.388,0,107.773,107.773,0,0,0,37.744,6.733,110.449,110.449,0,0,0,26.758-3.278l17.566-4.392A118.927,118.927,0,0,1,363.161,414.034ZM343.853,64H352V48h-8V32h16V55.5A235.272,235.272,0,0,1,331.305,168H317.352A251.4,251.4,0,0,0,343.853,64ZM280,217V184h64.581v33Zm64.581,16v31H280V233ZM184,32H328V48H280V64h47.839a235.328,235.328,0,0,1-28.534,104H219.314l24.673-24.673-11.314-11.314-25.4,25.4q-4.191-8.709-7.647-17.724l34.133-34.132L222.443,94.243l-28.571,28.571q-3-10.018-5.1-20.273l40.884-40.884L218.343,50.343,185.635,83.052A234.161,234.161,0,0,1,184,55.5Zm80,152v33H248V184Zm-96,33V184h64v33Zm64,16v31H168V233ZM152,55.5V32h16V55.5A251.325,251.325,0,0,0,194.648,168H180.7A235.272,235.272,0,0,1,152,55.5ZM166.564,280H240a8,8,0,0,0,8-8V233h16v39a8,8,0,0,0,8,8h73.436A119.49,119.49,0,0,1,376,360a120.965,120.965,0,0,1-1.541,19.21l-25.643,6.411a94.844,94.844,0,0,1-55-2.914,110.68,110.68,0,0,0-75.624,0,94.845,94.845,0,0,1-55,2.914l-25.643-6.411A120.947,120.947,0,0,1,136,360,119.49,119.49,0,0,1,166.564,280ZM128,217.759l24,4.8v10.882l-24,4.8Z"/><rect x="248" y="48" width="16" height="16"/></g></svg>
