<?xml version="1.0"?>
<svg xmlns="http://www.w3.org/2000/svg" viewBox="0 0 512 512" width="512" height="512"><g id="out_line" data-name="out line"><path d="M48,448a24.027,24.027,0,0,0,24-24V303.683a125.605,125.605,0,0,1,37.03-89.4,156.893,156.893,0,0,1,82.039-43.5,64.072,64.072,0,0,1-20.211,36.683A177.822,177.822,0,0,0,112,339.63v98.48a20.819,20.819,0,0,1-11.575,18.733A8,8,0,0,0,96,464v24a8,8,0,0,0,8,8H408a8,8,0,0,0,8-8V464a8,8,0,0,0-4.425-7.157A20.819,20.819,0,0,1,400,438.11V339.63a178.063,178.063,0,0,0-58.859-132.167,63.994,63.994,0,0,1-20.229-36.686,156.892,156.892,0,0,1,82.058,43.506,125.605,125.605,0,0,1,37.03,89.4V424a24,24,0,0,0,48,0V294.96a158.949,158.949,0,0,0-46.863-113.136L430.31,171A194.1,194.1,0,0,0,352,123.341V44a28.032,28.032,0,0,0-28-28H188a28.032,28.032,0,0,0-28,28v79.341A194.1,194.1,0,0,0,81.69,171L70.863,181.824A158.949,158.949,0,0,0,24,294.96V424A24.027,24.027,0,0,0,48,448ZM330.438,219.357A162.036,162.036,0,0,1,384,339.63v98.48a36.708,36.708,0,0,0,16,30.446V480H112V468.556a36.708,36.708,0,0,0,16-30.446V339.63a161.822,161.822,0,0,1,53.562-120.274,80.113,80.113,0,0,0,25.949-50.8c4.386-.362,83.719-.556,83.719-.556h0s8.865.193,13.247.555a79.776,79.776,0,0,0,25.961,50.8ZM224,96v16H208V64h16V80h16V64h16v48H240V96Zm42.434,56H245.566a27.112,27.112,0,0,0-.763-24H267.2a27.112,27.112,0,0,0-.763,24ZM419,182.31l10.827,10.827A143.061,143.061,0,0,1,472,294.96V424a8,8,0,0,1-16,0V303.683A141.493,141.493,0,0,0,414.283,202.97,172.883,172.883,0,0,0,291.232,152,11.245,11.245,0,0,1,280,140.768a11.235,11.235,0,0,1,11.2-11.233q.442,0,.891.034l14.689,1.13A178.117,178.117,0,0,1,419,182.31ZM272,112V64h32v48Zm14.624-80H324a12.013,12.013,0,0,1,12,12v74.986q-7.917-1.8-16-2.933V56a8,8,0,0,0-8-8H286.624a23.944,23.944,0,0,0,0-16ZM176,44a12.013,12.013,0,0,1,12-12h76a8,8,0,0,1,0,16H200a8,8,0,0,0-8,8v60.053q-8.079,1.131-16,2.933ZM40,294.96A143.061,143.061,0,0,1,82.176,193.137L93,182.31A178.117,178.117,0,0,1,205.216,130.7l14.691-1.13q.447-.035.89-.034A11.235,11.235,0,0,1,232,140.768,11.245,11.245,0,0,1,220.768,152,172.883,172.883,0,0,0,97.717,202.97,141.493,141.493,0,0,0,56,303.683V424a8,8,0,0,1-16,0Z"/><path d="M293.315,210.021A8,8,0,0,0,288,208H224a8,8,0,0,0-5.315,2.021l-15,13.336A177.961,177.961,0,0,0,144,356.258V456a8,8,0,0,0,8,8H360a8,8,0,0,0,8-8V356.258a177.961,177.961,0,0,0-59.681-132.9ZM224,226.7l3.042-2.7h57.916L288,226.7V252a4,4,0,0,1-4,4H228a4,4,0,0,1-4-4ZM264,272v16H248V272ZM160,448V356.258a161.959,161.959,0,0,1,48-115.021V252a20.023,20.023,0,0,0,20,20h4v24a8,8,0,0,0,8,8h8v24H200a8,8,0,0,0-8,8v64c0,.052.01.1.011.154,0,.239.023.477.05.716.011.105.017.211.032.316a7.964,7.964,0,0,0,.215,1.012L205.394,448Zm129.966,0H222.034l-11.428-40h90.788ZM304,352v40H264V376H248v16H208V344h40v16h16V344h40Zm48,96H306.606l11.429-40H336a31.793,31.793,0,0,0,16-4.305Zm-16-56H320V360h16a16,16,0,0,1,0,32Zm15.792-43.815A31.794,31.794,0,0,0,336,344H320v-8a8,8,0,0,0-8-8H264V304h8a8,8,0,0,0,8-8V272h4a20.023,20.023,0,0,0,20-20V241.236A161.977,161.977,0,0,1,351.792,348.185Z"/></g></svg>
