<?xml version="1.0"?>
<svg xmlns="http://www.w3.org/2000/svg" viewBox="0 0 512 512" width="512" height="512"><g id="out_line" data-name="out line"><path d="M273.556,173.1a51.243,51.243,0,0,0,28.149-8.885c20.379-13.582,28.1-37.924,17.21-54.261-5.511-8.269-14.7-13.2-25.873-13.879-10.341-.627-21.3,2.524-30.833,8.88-20.379,13.583-28.1,37.924-17.21,54.262C251.1,168.374,261.769,173.1,273.556,173.1Zm22.036-52.881,6.925-4.615a13.432,13.432,0,0,1,3.084,3.223c5.894,8.844.046,23.532-12.769,32.074-7.629,5.085-16.318,7.051-23.345,5.945l2.837-1.891A35.082,35.082,0,0,0,287.366,132.5,19.185,19.185,0,0,1,295.592,120.222Zm-24.51-1.951a39.593,39.593,0,0,1,7.556-3.938,35.141,35.141,0,0,0-6.961,15.03,19.193,19.193,0,0,1-8.227,12.282l-6.939,4.625C254.222,137.464,260.081,125.605,271.082,118.271Z"/><path d="M64,464H80v24a8,8,0,0,0,8,8h48a8,8,0,0,0,8-8V464H368v24a8,8,0,0,0,8,8h48a8,8,0,0,0,8-8V464h16a8,8,0,0,0,8-8V344a8,8,0,0,0-8-8H432V320h8a16.019,16.019,0,0,0,16-16V280a16.019,16.019,0,0,0-16-16H338.371A34.783,34.783,0,0,0,344,245V88a8,8,0,0,0-8-8H253.094a35.661,35.661,0,0,0,2.8-17.282c-.755-10.337-5.342-20.768-12.913-29.371S225.646,18.865,215.486,16.8c-10.968-2.229-21.118.159-28.58,6.722a28.387,28.387,0,0,0-3.442,3.6C172.241,41.041,174.668,63.2,189.187,80H152a8,8,0,0,0-6.86,12.116l22.86,38.1V245a34.783,34.783,0,0,0,5.629,19H72a16.019,16.019,0,0,0-16,16v24a16.019,16.019,0,0,0,16,16h8v16H64a8,8,0,0,0-8,8V456A8,8,0,0,0,64,464Zm64,16H96V464h32Zm288,0H384V464h32ZM212.3,32.481c6.759,1.373,13.386,5.433,18.664,11.435a39.6,39.6,0,0,1,4.927,6.968,35.149,35.149,0,0,0-15.838-4.9,19.183,19.183,0,0,1-13.269-6.515l-5.5-6.245A18.967,18.967,0,0,1,212.3,32.481ZM194.773,50.035a35.082,35.082,0,0,0,24.261,11.913A19.188,19.188,0,0,1,232.3,68.464l5.5,6.245a13.5,13.5,0,0,1-2.789,3.491A13.245,13.245,0,0,1,232.37,80h-16.4a36.95,36.95,0,0,1-14.443-10.184c-6-6.821-9.145-15.17-8.988-22.322ZM166.13,96H328V245a19.031,19.031,0,0,1-13.5,18.182c.159-.177.322-.347.48-.525,7.571-8.6,12.157-19.036,12.912-29.374.815-11.164-2.844-20.928-10.3-27.492s-17.608-8.951-28.579-6.724a49.35,49.35,0,0,0-23.18,12.155c.827-12.932-5.423-27.421-17.706-37.917-8.713-7.447-19.21-11.881-29.558-12.486-11.176-.659-20.884,3.146-27.339,10.7A30.648,30.648,0,0,0,184,191.4V128a8.009,8.009,0,0,0-1.14-4.116ZM272.19,250.732a19.194,19.194,0,0,1,13.269-6.516A35.082,35.082,0,0,0,309.72,232.3l2.266-2.575c.02.778.007,1.573-.052,2.389-.5,6.878-3.688,13.97-8.967,19.97s-11.909,10.06-18.667,11.434c-5.947,1.208-11.211.123-14.823-3.056a13.46,13.46,0,0,1-2.784-3.486ZM268.6,233.154a39.637,39.637,0,0,1,4.928-6.973c5.28-6,11.91-10.061,18.667-11.434a23.086,23.086,0,0,1,4.591-.481,16.851,16.851,0,0,1,6.432,1.208l-5.508,6.259a19.188,19.188,0,0,1-13.269,6.516A35.138,35.138,0,0,0,268.6,233.154Zm-36.467-11.408,2.591,2.215c-7.108.262-15.5-2.724-22.472-8.681h0c-6.075-5.193-10.231-11.762-11.7-18.5-1.294-5.929-.286-11.208,2.841-14.866a13.461,13.461,0,0,1,3.445-2.833l6.326,5.406a19.185,19.185,0,0,1,6.707,13.173A35.073,35.073,0,0,0,232.131,221.746Zm-1.447-41.1a39.56,39.56,0,0,1,7.044,4.826c10.051,8.59,14.457,21.061,11.137,29.533l-6.34-5.418a19.191,19.191,0,0,1-6.707-13.173A35.127,35.127,0,0,0,230.684,180.642Zm-28.829,46.8h0c9.7,8.289,21.272,12.476,31.939,12.476a34.943,34.943,0,0,0,16.414-3.881,44.834,44.834,0,0,0-1.6,8.946A35.037,35.037,0,0,0,252.244,264H203a19.021,19.021,0,0,1-19-19V192.531a39.532,39.532,0,0,0,.916,7.662C187.127,210.32,193.143,220,201.855,227.444ZM72,304V280H440l.01,24H72Zm344,16v16H96V320ZM72,352H440v96H72Z"/><path d="M176,432H336a8,8,0,0,0,8-8V376a8,8,0,0,0-8-8H176a8,8,0,0,0-8,8v48A8,8,0,0,0,176,432Zm8-48H328v32H184Z"/><path d="M120,432a32,32,0,1,0-32-32A32.036,32.036,0,0,0,120,432Zm0-48a16,16,0,1,1-16,16A16.019,16.019,0,0,1,120,384Z"/><path d="M392,432a32,32,0,1,0-32-32A32.036,32.036,0,0,0,392,432Zm0-48a16,16,0,1,1-16,16A16.019,16.019,0,0,1,392,384Z"/></g></svg>
