<?xml version="1.0"?>
<svg xmlns="http://www.w3.org/2000/svg" viewBox="0 0 512 512" width="512" height="512"><g id="out_line" data-name="out line"><path d="M278,16H234a50.057,50.057,0,0,0-50,50v34.686L171.716,112.97A39.739,39.739,0,0,0,160,141.255v20.121A24.039,24.039,0,0,0,144,184v32a8,8,0,0,0,8,8v56.42a718.607,718.607,0,0,0,8.768,111.728l15.33,97.1A8,8,0,0,0,184,496H400a8,8,0,0,0,7.354-11.151l-22.9-53.437L407.718,346.1A8,8,0,0,0,400,336H357.828c1.44-18.479,2.172-37.135,2.172-55.58V224a8,8,0,0,0,8-8V184a24.039,24.039,0,0,0-16-22.624V141.255a39.739,39.739,0,0,0-11.716-28.285L328,100.686V66A50.057,50.057,0,0,0,278,16ZM200,66a34.038,34.038,0,0,1,34-34h44a34.038,34.038,0,0,1,34,34V96H200Zm98.725,414H190.836l-14.264-90.348A702.557,702.557,0,0,1,168,280.42V224H344v56.42c0,18.446-.749,37.107-2.222,55.58H304a8,8,0,0,0-7.718,10.1l23.266,85.308Zm50.8-128L332,416.263,314.474,352Zm-18.8,128H316.132l17.143-40h14.592Zm57.143,0H348.133l17.142-40h5.45ZM366.11,352h23.416L369.89,424H346.474ZM344,176a8.009,8.009,0,0,1,8,8v24H160V184a8.009,8.009,0,0,1,8-8Zm-15.03-51.716A23.844,23.844,0,0,1,336,141.255V160H176V141.255a23.844,23.844,0,0,1,7.03-16.971L195.313,112H316.687Z"/><path d="M200,303.208V296a8,8,0,0,0-16,0v7.208a420.934,420.934,0,0,0,8.155,82.361A8,8,0,0,0,199.991,392a8.11,8.11,0,0,0,1.578-.157,8,8,0,0,0,6.276-9.414A404.889,404.889,0,0,1,200,303.208Z"/><path d="M192,272a8,8,0,0,0,8-8v-8a8,8,0,0,0-16,0v8A8,8,0,0,0,192,272Z"/></g></svg>
