<?xml version="1.0"?>
<svg xmlns="http://www.w3.org/2000/svg" viewBox="0 0 512 512" width="512" height="512"><g id="out_line" data-name="out line"><path d="M398.91,332.031A8,8,0,0,0,396.8,321.6l-32-24a8,8,0,0,0-9.6,0l-17.919,13.441-1.309-15.706A8,8,0,0,0,328,288H264V232h6a34.038,34.038,0,0,0,34-34V64a48,48,0,0,0-96,0v8a7.994,7.994,0,0,0,.845,3.578l4,8a9.909,9.909,0,0,1-.006,8.838l-.123.244a25.214,25.214,0,0,0,.107,22.769l.264.514a8.817,8.817,0,0,1,.035,7.993l-.366.724a25.739,25.739,0,0,0,.219,23.61l.16.3a7.823,7.823,0,0,1,.074,7.162l-4.357,8.673A8,8,0,0,0,208,168v30a34.038,34.038,0,0,0,34,34h6v56H231.777a36.008,36.008,0,0,0-35.738-32H191.99a39.993,39.993,0,0,0-37.243-5.743,40.005,40.005,0,0,0-64.075,44.129A35.974,35.974,0,0,0,139.23,340.6l-1.689,7.606a58.727,58.727,0,0,0,28.749,64l-3.733,44.8A36,36,0,0,0,198.43,496H313.57a36,36,0,0,0,35.872-38.994l-.957-11.493a27.216,27.216,0,0,0,30.722-5.406,8,8,0,0,0-11.314-11.314,11.168,11.168,0,0,1-17.543-13.522ZM227.28,141.094l-.161-.3a9.721,9.721,0,0,1-.083-8.915l.366-.724a24.856,24.856,0,0,0-.085-22.524l-.264-.515a9.155,9.155,0,0,1-.041-8.267l.123-.245a25.99,25.99,0,0,0,.021-23.18L224,70.111V64a32,32,0,0,1,64,0V80H272a8,8,0,0,0,0,16h16v16H272a8,8,0,0,0,0,16h16v16H272a8,8,0,0,0,0,16h16v24H224V169.9l3.506-6.977A23.856,23.856,0,0,0,227.28,141.094ZM224.118,200h63.764A18.02,18.02,0,0,1,270,216H242A18.02,18.02,0,0,1,224.118,200Zm96.521,104,5.658,67.907-5.047,2.524a47.911,47.911,0,0,1-36.812,2.616l-6.372-2.124A64.068,64.068,0,0,0,264,371.941V304ZM248,372.387a64.084,64.084,0,0,0-14.092,3.834,48.024,48.024,0,0,1-35.816,0l-12.337-4.935,4.15-49.821A40.366,40.366,0,0,0,204.653,304H248ZM124,328a20,20,0,0,1-17.523-29.642,8,8,0,0,0,.125-7.5A23.722,23.722,0,0,1,104,280a24,24,0,0,1,42.625-15.131,8,8,0,0,0,10,1.992A23.688,23.688,0,0,1,168,264a23.966,23.966,0,0,1,15.863,6,8,8,0,0,0,5.292,2h6.884A19.992,19.992,0,0,1,215.6,288H198.99a8,8,0,0,0-7.74,6.008l-.006,0A24.156,24.156,0,0,1,180,308.794l.092.16h0l-.092-.16a24.008,24.008,0,0,1-24.681-.425,8,8,0,0,0-11.975,4.746,19.929,19.929,0,0,1-1.084,3.064c-.031.063-.058.128-.087.191A20.017,20.017,0,0,1,124,328Zm29.16,23.674,4.063-18.291a36.335,36.335,0,0,0,.825-6.643,39.861,39.861,0,0,0,15.288.9l-5.527,66.334A42.725,42.725,0,0,1,153.16,351.674ZM328.283,473.545A19.779,19.779,0,0,1,313.57,480H198.43A20,20,0,0,1,178.5,458.333l5.863-70.371,7.784,3.114a63.953,63.953,0,0,0,47.7,0A48.077,48.077,0,0,1,248,388.628v40.95L246.385,432H240a8,8,0,0,0-14.655-4.438l-16,24a8,8,0,1,0,13.312,8.876L231,447.93a7.938,7.938,0,0,0,1,.07h3.719l-2.375,3.562a8,8,0,1,0,13.312,8.876L254.948,448h4.771l-2.375,3.562a8,8,0,1,0,13.312,8.876L278.948,448h4.771l-2.375,3.562a8,8,0,1,0,13.312,8.876l16-24a8,8,0,0,0-13.312-8.876L294.385,432H288a8,8,0,0,0-14.655-4.438L270.385,432H264V388.046a48.123,48.123,0,0,1,9.007,2.056l6.371,2.124a63.783,63.783,0,0,0,48.348-3.165l5.772,69.273A19.8,19.8,0,0,1,328.283,473.545ZM344.2,394.064l-5.349-64.2L360,314l21.5,16.124Z"/></g></svg>
