<?xml version="1.0"?>
<svg xmlns="http://www.w3.org/2000/svg" viewBox="0 0 512 512" width="512" height="512"><g id="out_line" data-name="out line"><path d="M422,240H280V224h24a8,8,0,0,0,8-8V185.862a160.389,160.389,0,0,0,16-69.639V38a22.025,22.025,0,0,0-22-22H206a22.025,22.025,0,0,0-22,22v78.223a160.389,160.389,0,0,0,16,69.639V216a8,8,0,0,0,8,8h24v16a8,8,0,0,0-8,8v24a8,8,0,0,0-5.657,2.343l-9.941,9.94a55.638,55.638,0,0,0-16.4,39.6A52.177,52.177,0,0,0,244.117,376h23.766A52.177,52.177,0,0,0,320,323.883,55.579,55.579,0,0,0,306.987,288H400v19.357l-51.969,29.7A8,8,0,0,0,344,344V448H302a25.86,25.86,0,0,0,2-10V425.3l7.59-22.768A8,8,0,0,0,304,392H208a8,8,0,0,0-7.59,10.53L208,425.3V438a25.86,25.86,0,0,0,2,10H192a8,8,0,0,0-8,8v32a8,8,0,0,0,8,8H384a8,8,0,0,0,8-8V364.643l42.9-24.515A26.057,26.057,0,0,0,448,317.554V266A26.029,26.029,0,0,0,422,240ZM200,116.223V64H312v52.223a142.23,142.23,0,0,1-.754,14.457l-21.352-10.672a75.735,75.735,0,0,0-67.781,0L200.754,130.68A142.245,142.245,0,0,1,200,116.223ZM200,38a6.006,6.006,0,0,1,6-6H306a6.006,6.006,0,0,1,6,6V48H200Zm15.155,142.422a143.79,143.79,0,0,1-11.73-33.188l25.846-12.921a59.687,59.687,0,0,1,53.461,0l25.843,12.918a143.79,143.79,0,0,1-11.73,33.188A7.994,7.994,0,0,0,296,184v24H216V184A7.994,7.994,0,0,0,215.155,180.422ZM248,224h16v16H248Zm-8,32h32v16H240Zm27.883,104H244.117a36.174,36.174,0,0,1-34.274-24.75,35.511,35.511,0,0,0,34.487-4.5,19.451,19.451,0,0,1,23.342,0,35.374,35.374,0,0,0,34.478,4.52A36.174,36.174,0,0,1,267.883,360Zm24.4-64.4a39.71,39.71,0,0,1,10.982,20.612l-3.541,2.363a19.439,19.439,0,0,1-22.454-.624,35.453,35.453,0,0,0-42.539,0,19.5,19.5,0,0,1-22.451.627l-3.545-2.366A39.71,39.71,0,0,1,219.717,295.6l7.6-7.6H248v8a8,8,0,0,0,16,0v-8h20.687ZM224,438V424a8.032,8.032,0,0,0-.41-2.53L219.1,408h73.8l-4.49,13.47A8.032,8.032,0,0,0,288,424v14a10.011,10.011,0,0,1-10,10H264V432a8,8,0,0,0-16,0v16H234A10.011,10.011,0,0,1,224,438Zm152,42H200V464H376Zm56-162.446a10.021,10.021,0,0,1-5.038,8.682l-46.931,26.818A8,8,0,0,0,376,360v88H360V348.643l51.969-29.7A8,8,0,0,0,416,312V280a8,8,0,0,0-8-8H288V256H422a10.011,10.011,0,0,1,10,10Z"/><path d="M282.343,165.657a8,8,0,1,0,11.314-11.314l-8-8a8,8,0,0,0-11.314,11.314Z"/><path d="M226.343,173.657a8,8,0,0,0,11.314-11.314l-8-8a8,8,0,0,0-11.314,11.314Z"/><path d="M272,200a7.974,7.974,0,0,0,5.657-2.343l8-8a8,8,0,0,0-11.314-11.314l-8,8A8,8,0,0,0,272,200Z"/><path d="M247.441,161.314a7.993,7.993,0,0,0,10.717-3.626l5.014-10.143a8,8,0,0,0-14.344-7.09L243.814,150.6A8,8,0,0,0,247.441,161.314Z"/><path d="M234.343,178.343l-8,8a8,8,0,0,0,11.314,11.314l8-8a8,8,0,0,0-11.314-11.314Z"/></g></svg>
