<svg height="512" viewBox="0 0 512 512" width="512" xmlns="http://www.w3.org/2000/svg"><g id="out_line" data-name="out line"><path d="m389.294 410c-.057-.05-.119-.092-.178-.141l.006-.007-20.516-17.1a162.075 162.075 0 0 1 -41.26-51.965 180.919 180.919 0 0 1 -1.215-122.665l24.361-69.6a99.618 99.618 0 0 0 -94.024-132.522h-.936a99.617 99.617 0 0 0 -94.024 132.525l24.361 69.6a180.919 180.919 0 0 1 -1.215 122.665 162.075 162.075 0 0 1 -41.26 51.965l-20.516 17.1.006.007c-.058.049-.121.091-.178.141a8 8 0 0 0 -2.706 5.997v63.969a8 8 0 0 0 7.008 7.938 1040.074 1040.074 0 0 0 128.992 8.025 1040.074 1040.074 0 0 0 128.992-8.025 8 8 0 0 0 7.008-7.938v-63.969a8 8 0 0 0 -2.706-6zm-13.294 30.91a1024.8 1024.8 0 0 1 -240 0v-15.888a1040.748 1040.748 0 0 0 240 0zm-66.439-102.547-15.5 3.876c-2.011.5-4.033.949-6.06 1.371v-48.589a729.882 729.882 0 0 0 -8.459-110.62l-2.955-19.2c-3.07-19.963-5.314-40.3-6.669-60.445l-4.863-72.3a83.408 83.408 0 0 1 22.945 5.7v15.214a601.185 601.185 0 0 0 22.217 161.872 196.986 196.986 0 0 0 -.656 123.121zm-66.973-135.595a546.459 546.459 0 0 1 -10.859-167.323 83.606 83.606 0 0 1 17.276-3.183l4.948 73.568c1.385 20.6 3.68 41.394 6.82 61.8l2.954 19.2a713.905 713.905 0 0 1 8.273 108.191v51.057a157.786 157.786 0 0 1 -16 .829v-21.959a564.192 564.192 0 0 0 -13.412-122.18zm95-107.431a83.392 83.392 0 0 1 -2.2 47.9l-15.67 44.772a585.162 585.162 0 0 1 -15.718-134.639v-6.565a83.458 83.458 0 0 1 33.588 48.532zm-122.475-52.947a562.382 562.382 0 0 0 11.856 163.849 548.115 548.115 0 0 1 13.031 118.709v21.13a156.3 156.3 0 0 1 -22.06-3.839l-15.5-3.876a197.061 197.061 0 0 0 5.56-99.979v-28.984a557.194 557.194 0 0 0 -8.969-99.432c-.026-.143-.056-.286-.09-.428l-10.487-43.865a83.525 83.525 0 0 1 26.659-23.285zm-38.5 100.85a83.27 83.27 0 0 1 .443-56.443l6.275 26.249a541.125 541.125 0 0 1 8.146 72.662zm19.548 210.046 17.9 4.475a173.544 173.544 0 0 0 83.88 0l17.9-4.475a177.827 177.827 0 0 0 42.521 51.763l6.173 5.144a1024.924 1024.924 0 0 1 -217.072 0l6.173-5.143a177.844 177.844 0 0 0 42.522-51.764zm-60.161 119.596v-15.863a1040.314 1040.314 0 0 0 120 6.944 1040.314 1040.314 0 0 0 120-6.944v15.863a1024.8 1024.8 0 0 1 -240 0z"/><path d="m72 440h16v16h-16z"/><path d="m72 384h16v40h-16z"/><path d="m368 344h16v16h-16z"/><path d="m368 296h16v32h-16z"/><path d="m368 232h16v48h-16z"/></g></svg>