<?xml version="1.0"?>
<svg xmlns="http://www.w3.org/2000/svg" viewBox="0 0 512 512" width="512" height="512"><g id="out_line" data-name="out line"><path d="M259.945,117.082A7.963,7.963,0,0,0,262.428,116l14.01-9.34a8,8,0,0,0-8.876-13.312l-14.009,9.34a7.942,7.942,0,0,0-1.96,1.864,12,12,0,1,0,8.352,12.534Z"/><path d="M488,240H454.28a53.058,53.058,0,0,0-51.21,39.349l-20.521,76.945A5,5,0,0,1,377.72,360H349.059l-11.481-91.854A23.035,23.035,0,0,0,314.76,248H290.246l5.515-22.06A8,8,0,0,0,288,216H256V175.451a60,60,0,1,0-16,0V216H216a8,8,0,0,0-8,8v24H186.9l-45.775-38.146A8,8,0,0,0,136,208H80a8,8,0,0,0-7.456,5.1l-56,144A8,8,0,0,0,24,368H44.27a36.08,36.08,0,0,0,33.9-23.89L109.638,256h15.556l31.589,25.267-19.03,152.245A20,20,0,0,0,157.59,456H338.41a20,20,0,0,0,19.838-22.481L355.059,408H377.72a53.058,53.058,0,0,0,51.21-39.349l20.521-76.945A5,5,0,0,1,454.28,288H474a22.025,22.025,0,0,0,22-22V248A8,8,0,0,0,488,240ZM332.934,360l4,32H159.067l4-32ZM314.76,264a7.009,7.009,0,0,1,6.941,6.132L324.935,296H254.624A23.889,23.889,0,0,0,256,288V264Zm-37.006-32-4,16H256V232Zm-63.2-87.455,9.73-5.617-8-13.856-9.752,5.631a43.906,43.906,0,0,1,0-29.406l9.752,5.631,8-13.856-9.73-5.617A44,44,0,0,1,240,72.742V84h16V72.742A43.975,43.975,0,0,1,289.465,130.7l-9.752-5.631-8,13.856,9.73,5.617A44,44,0,0,1,256,159.258V148H240v11.258A44,44,0,0,1,214.557,144.545ZM224,232h16v56a8,8,0,0,1-16,0Zm-50.781,46.808,1.08-8.675A7.009,7.009,0,0,1,181.24,264H208v24a23.889,23.889,0,0,0,1.376,8H171.069ZM326.934,312l4,32H165.068l4-32ZM133,241.753A8,8,0,0,0,128,240H104a8,8,0,0,0-7.534,5.31L63.105,338.729A20.041,20.041,0,0,1,44.27,352H35.694L85.473,224H133.1l34.346,28.621a23.039,23.039,0,0,0-7.776,10.47ZM341.4,438.646A3.949,3.949,0,0,1,338.41,440H157.59a4,4,0,0,1-3.961-4.5l3.438-27.5H338.934l3.438,27.508A3.95,3.95,0,0,1,341.4,438.646ZM480,266a6.006,6.006,0,0,1-6,6H454.28a21.016,21.016,0,0,0-20.29,15.589L413.47,364.53A37.04,37.04,0,0,1,377.72,392H353.059l-2-16H377.72a21.016,21.016,0,0,0,20.29-15.589l20.52-76.941A37.04,37.04,0,0,1,454.28,256H480Z"/></g></svg>
