<?xml version="1.0" encoding="utf-8"?>
<!-- Generator: Adobe Illustrator 21.1.0, SVG Export Plug-In . SVG Version: 6.00 Build 0)  -->
<svg version="1.1" id="Calque_1" xmlns="http://www.w3.org/2000/svg" xmlns:xlink="http://www.w3.org/1999/xlink" x="0px" y="0px"
	 viewBox="0 0 432 432" style="enable-background:new 0 0 432 432;" xml:space="preserve">
<style type="text/css">
	.st0{fill:#333333;}
	.st1{fill:#BF924C;}
	.st2{fill:#E6E6E6;}
	.st3{fill:#801422;}
	.st4{fill:#6F4436;}
	.st5{fill:#BE9B7B;}
	.st6{fill:#FBB03B;}
	.st7{fill:#D37A20;}
	.st8{fill:#1A1A1A;}
	.st9{fill:#EE7EB0;}
	.st10{fill:#FFD744;}
	.st11{fill:#78CFDE;}
	.st12{fill:#AA4B57;}
	.st13{fill:#B3B3B3;}
	.st14{fill:#66472D;}
	.st15{fill:#4C71A8;}
	.st16{fill:#D18FAF;}
	.st17{fill:#578FC8;}
	.st18{fill:#D9B442;}
	.st19{fill:#8C6E54;}
	.st20{fill:#3C2F2F;}
	.st21{fill:#9FAF88;}
	.st22{fill:#7E8D66;}
	.st23{fill:#D6A1AD;}
	.st24{fill:#FCD5D2;}
	.st25{fill:#BA2C38;}
	.st26{fill:#BF926B;}
	.st27{fill:#5B9DC1;}
	.st28{fill:#F4923E;}
	.st29{fill:#282C35;}
	.st30{fill:#EBB2A5;}
	.st31{fill:#CF6557;}
	.st32{fill:#7FB9BC;}
	.st33{fill:#154B67;}
	.st34{fill:#EAD5B6;}
	.st35{fill:#4D9164;}
	.st36{fill:#C59E73;}
	.st37{fill:#EEC7A0;}
	.st38{fill:#EC9294;}
	.st39{fill:#D2523D;}
	.st40{fill:#BEC1A4;}
	.st41{fill:#939176;}
	.st42{fill:#F8CACC;}
	.st43{fill:#F1949B;}
	.st44{fill:#59A5AD;}
	.st45{fill:#11937F;}
	.st46{fill:#406C70;}
	.st47{fill:#6FAFC6;}
	.st48{fill:#EF777F;}
	.st49{fill:#F3C186;}
	.st50{fill:#F6AD4B;}
	.st51{fill:none;}
	.st52{fill:#579B5E;}
	.st53{fill:#C69C6D;}
	.st54{fill:#4B8599;}
	.st55{fill:#D09596;}
	.st56{fill:#91B468;}
	.st57{fill:#F9C9CC;}
	.st58{fill:#2D302A;}
	.st59{fill:#D17475;}
	.st60{fill:#C1272D;}
	.st61{fill:#736357;}
	.st62{fill:#92B4C4;}
	.st63{fill:#A67C52;}
	.st64{fill:#F7931E;}
	.st65{fill:#B2151B;}
	.st66{fill:#D7A356;}
	.st67{fill:#B88D52;}
	.st68{fill:#8B514D;}
	.st69{fill:#727D6D;}
	.st70{fill:#F6A865;}
	.st71{fill:#F885C1;}
	.st72{fill:#4DC497;}
	.st73{fill:#AAA39B;}
	.st74{fill:#564336;}
	.st75{fill:#006837;}
	.st76{fill:#953D3D;}
	.st77{fill:#BEAF98;}
	.st78{fill:#D06C5D;}
	.st79{fill:#CCCCCC;}
	.st80{fill:#961F21;}
	.st81{fill:#C1934D;}
	.st82{fill:#F7CAC9;}
	.st83{fill:#FF8B85;}
	.st84{fill:#EE5977;}
	.st85{fill:#FDC111;}
	.st86{fill:#53BFD3;}
	.st87{fill:#CCCE01;}
	.st88{fill:#FD8C84;}
	.st89{fill:#92C142;}
	.st90{fill:#FFD066;}
	.st91{fill:#DC042B;}
</style>
<g>
	<g>
		<path class="st4" d="M286.4,241.3c0.1,2.4,0.1,4.8,0.8,7c0.3,1.1,0.8,2.1,1.4,3c0.6,1,1.4,1.2,2.5,1c1.5-0.4,3-0.9,4.4-1.6
			c0.6-0.3,1.1-0.6,1.7-0.9c0.6-0.3,1.3-0.6,2-0.9c1.5-0.6,2.9-0.3,4.3,0.5c1.6,1,2.6,2.3,3.3,4c0.7,1.6,1.1,3.3,1.3,5
			c0.3,2,0.4,4,0.1,6c-0.4,2.3-1.6,4.1-3.9,4.7c-1.9,0.5-3.8,0.9-5.8,0.6c-1.5-0.2-3.1-0.4-4.6-0.5c-1.5-0.1-2.9,0-4.3,0.5
			c-1.6,0.6-2.3,1.9-2.2,3.5c0.1,1.5,0.4,3,0.6,4.5c0.1,0.5,0.2,0.9,0.2,1.4c0.1,0.5,0.3,0.8,0.7,1.1c0.6,0.4,1.4,0.7,2.1,0.7
			c1.9-0.1,3.9-0.2,5.8-0.4c1.2-0.1,2.4-0.7,3.5-1.3c1.6-0.9,3.3-1.7,4.9-2.6c0.9-0.4,1.8-0.7,2.7-1c1.2-0.4,2.5-0.3,3.7,0
			c1.3,0.4,2.3,1.3,2.9,2.5c0.6,1,0.8,2.2,0.8,3.3c0.1,2.9-0.5,5.7-1.7,8.3c-1.3,2.7-3.5,4-6.4,4.3c-1.9,0.2-3.7-0.1-5.6-0.2
			c-1.7-0.1-3.4-0.3-5.1-0.3c-2.8,0-5.5,0.1-8.3,0.1c-3,0-6-0.1-9-0.3c-1.3-0.1-2.6-0.4-3.8-0.8c-3.2-1.1-5.1-3.4-5.8-6.7
			c-0.6-2.6-0.4-5.2-0.1-7.9c0.3-2.7,0.6-5.5,0.8-8.2c0.2-2.6,0.5-5.1,0.6-7.7c0.1-1.5,0-3,0-4.4c0-1.5-0.1-3-0.2-4.5
			c0-2.2,0-4.5-0.1-6.7c-0.1-2.5-0.3-5-0.4-7.6c-0.1-1.4-0.2-2.8-0.3-4.3c-0.2-3.7-0.3-7.5-0.9-11.2c-0.2-1.7-0.5-3.4-0.4-5.2
			c0.1-1.4,0.5-2.8,1.1-4.1c0.9-2,3-3.1,5.2-2.8c0.6,0.1,1.3,0.2,1.9,0.3c2,0.5,3.9,0.7,5.9,0.8c1.3,0.1,2.5,0.3,3.8,0.3
			c1.5,0,3,0,4.5-0.1c3.3,0,6.7-0.1,10-0.1c0.8,0,1.6,0.2,2.4,0.4c1.4,0.4,2.6,1.1,3.7,2.2c2.8,3,3.6,6.5,3.2,10.5
			c-0.1,1.5-0.5,3-0.8,4.4c-0.3,1.2-0.8,2.3-1.6,3.3c-1.4,1.8-3.3,2.3-5.4,1.7c-1.3-0.4-2.3-1.1-3.2-2c-1.3-1.3-2.6-2.5-4.1-3.5
			c-0.6-0.4-1.3-0.7-2.1-0.8c-2.5-0.4-4.2,0.9-5.1,2.8c-0.5,1.1-0.8,2.2-1.1,3.4c-0.3,1.1-0.4,2.2-0.5,3.3
			C286.5,239.1,286.5,240.3,286.4,241.3z"/>
		<path class="st4" d="M335.1,241.3c0.1,2.4,0.1,4.8,0.8,7c0.3,1.1,0.8,2.1,1.4,3c0.6,1,1.4,1.2,2.5,1c1.5-0.4,3-0.9,4.4-1.6
			c0.6-0.3,1.1-0.6,1.7-0.9c0.6-0.3,1.3-0.6,2-0.9c1.5-0.6,2.9-0.3,4.3,0.5c1.6,1,2.6,2.3,3.3,4c0.7,1.6,1.1,3.3,1.3,5
			c0.3,2,0.4,4,0.1,6c-0.4,2.3-1.6,4.1-3.9,4.7c-1.9,0.5-3.8,0.9-5.8,0.6c-1.5-0.2-3.1-0.4-4.6-0.5c-1.5-0.1-2.9,0-4.3,0.5
			c-1.6,0.6-2.3,1.9-2.2,3.5c0.1,1.5,0.4,3,0.6,4.5c0.1,0.5,0.2,0.9,0.2,1.4c0.1,0.5,0.3,0.8,0.7,1.1c0.6,0.4,1.4,0.7,2.1,0.7
			c1.9-0.1,3.9-0.2,5.8-0.4c1.2-0.1,2.4-0.7,3.5-1.3c1.6-0.9,3.3-1.7,4.9-2.6c0.9-0.4,1.8-0.7,2.7-1c1.2-0.4,2.5-0.3,3.7,0
			c1.3,0.4,2.3,1.3,2.9,2.5c0.6,1,0.8,2.2,0.8,3.3c0.1,2.9-0.5,5.7-1.7,8.3c-1.3,2.7-3.5,4-6.4,4.3c-1.9,0.2-3.7-0.1-5.6-0.2
			c-1.7-0.1-3.4-0.3-5.1-0.3c-2.8,0-5.5,0.1-8.3,0.1c-3,0-6-0.1-9-0.3c-1.3-0.1-2.6-0.4-3.8-0.8c-3.2-1.1-5.1-3.4-5.8-6.7
			c-0.6-2.6-0.4-5.2-0.1-7.9c0.3-2.7,0.6-5.5,0.8-8.2c0.2-2.6,0.5-5.1,0.6-7.7c0.1-1.5,0-3,0-4.4c0-1.5-0.1-3-0.2-4.5
			c0-2.2,0-4.5-0.1-6.7c-0.1-2.5-0.3-5-0.4-7.6c-0.1-1.4-0.2-2.8-0.3-4.3c-0.2-3.7-0.3-7.5-0.9-11.2c-0.2-1.7-0.5-3.4-0.4-5.2
			c0.1-1.4,0.5-2.8,1.1-4.1c0.9-2,3-3.1,5.2-2.8c0.6,0.1,1.3,0.2,1.9,0.3c2,0.5,3.9,0.7,5.9,0.8c1.3,0.1,2.5,0.3,3.8,0.3
			c1.5,0,3,0,4.5-0.1c3.3,0,6.7-0.1,10-0.1c0.8,0,1.6,0.2,2.4,0.4c1.4,0.4,2.6,1.1,3.7,2.2c2.8,3,3.6,6.5,3.2,10.5
			c-0.1,1.5-0.5,3-0.8,4.4c-0.3,1.2-0.8,2.3-1.6,3.3c-1.4,1.8-3.3,2.3-5.4,1.7c-1.3-0.4-2.3-1.1-3.2-2c-1.3-1.3-2.6-2.5-4.1-3.5
			c-0.6-0.4-1.3-0.7-2.1-0.8c-2.5-0.4-4.2,0.9-5.1,2.8c-0.5,1.1-0.8,2.2-1.1,3.4c-0.3,1.1-0.4,2.2-0.5,3.3
			C335.2,239.1,335.2,240.3,335.1,241.3z"/>
		<path class="st4" d="M104.5,285.6c-0.4-2.1-1-4.1-2.3-5.8c-1.4-1.9-3.4-2.6-5.6-1.8c-1.7,0.6-3.3,1.3-5,2
			c-0.4,0.2-0.7,0.3-1.1,0.5c-2.6,0.9-5,0-6.2-2.5c-0.5-1.1-0.9-2.3-1.2-3.5c-1.2-4.3-1.7-8.7-2.3-13.2c-0.7-5.2-1.3-10.5-1.3-15.8
			c0-3.3,0.2-6.6,0.8-9.9c0.2-1.4,1.1-2.4,2.2-3.2c0.8-0.6,1.7-0.7,2.6-0.4c0.6,0.2,1.1,0.5,1.7,0.8c1.5,0.9,3.1,1.7,4.6,2.6
			c1.1,0.6,2.3,1.1,3.5,1.4c2.9,0.7,5.2-0.4,6.5-3.1c0.3-0.6,0.5-1.3,0.7-2c1-4.5,1.5-9,1.4-13.6c-0.1-1.4-0.3-2.7-0.9-4
			c-0.6-1.2-1.6-1.9-2.8-2.1c-1.6-0.2-3.3-0.4-4.8-0.2c-4.6,0.6-9.1,0.7-13.7,0.2c-1.4-0.1-2.9-0.2-4.3-0.1
			c-6.2,0.5-10.9,3.4-13.7,9c-1.8,3.5-2.9,7.3-3.4,11.2c-0.5,3.5-0.8,7-1.2,10.5c-0.1,3.3-0.1,6.6,0.1,9.9c0.1,2.2,0.3,4.3,0.4,6.5
			c0.2,3.1,0.3,6.3,0.5,9.4c0.3,4.2,1.3,8.3,3.1,12.2c1.8,3.9,4.3,7.2,8,9.4c3.3,1.9,6.9,3.4,10.8,4c4.9,0.9,9.8,1.1,14.7,0.9
			c1.7-0.1,3.4-0.4,5-1c1.8-0.7,2.8-2,3.3-3.9C104.9,288.8,104.7,287.2,104.5,285.6z"/>
		<path class="st4" d="M184.5,212.7c5.5,0.1,11-0.1,16.5-0.8c2.7-0.3,5.4-0.5,8.1,0.1c3.3,0.7,4.8,2.2,5.3,5.6
			c0.3,1.9,0,3.7-0.9,5.4c-1.3,2.4-3.3,3.6-6,3.7c-0.9,0-1.9-0.1-2.8-0.2c-4.8-0.5-9.7-0.4-14.5-0.1c-0.9,0.1-1.9,0.2-2.8,0.4
			c-3.3,0.8-5.1,3.1-5.8,6.3c-0.3,1.6-0.3,3.2-0.2,4.8c0.3,3.5,0.8,7,1.6,10.5c0.4,1.6,0.8,2,2.5,2.1c1.2,0,2.5,0,3.7-0.1
			c1.9-0.1,3.7,0,5.5,0.5c3.2,0.9,5.1,3.1,5.4,6.5c0.3,2.6,0.1,5.2-0.6,7.8c-0.8,3-2.9,4.4-5.7,4.9c-0.7,0.1-1.3,0.1-2,0.1
			c-0.9,0-1.7-0.1-2.6,0c-1.1,0-1.8,0.5-1.9,1.6c-0.1,1.1-0.2,2.3,0,3.4c0.4,3,0.9,5.9,1.4,8.9c0.2,1.6,0.5,3.3,0.6,4.9
			c0.1,0.9,0,1.8-0.2,2.6c-0.4,2-1.6,3.2-3.4,3.9c-2.1,0.8-4.3,0.9-6.5,0.8c-2.2-0.1-4.4-0.5-6.6-1c-2.6-0.6-4.3-2.1-4.8-4.8
			c-0.2-1.1-0.4-2.2-0.4-3.3c0.1-3,0.2-6,0.4-9c0.3-4.8,0.6-9.6,0.8-14.4c0.3-5.1,0.4-10.2,0.2-15.2c-0.3-5.9-1-11.8-2-17.7
			c-0.5-2.6-0.9-5.2-1.3-7.7c-0.3-1.8-0.1-3.5,0.5-5.2c1.1-3,3.2-4.8,6.4-5.1c1.8-0.2,3.5-0.3,5.3-0.2
			C180.1,212.5,182.3,212.6,184.5,212.7z"/>
		<path class="st4" d="M235,212.7c5.5,0.1,11-0.1,16.5-0.8c2.7-0.3,5.4-0.5,8.1,0.1c3.3,0.7,4.8,2.2,5.3,5.6c0.3,1.9,0,3.7-0.9,5.4
			c-1.3,2.4-3.3,3.6-6,3.7c-0.9,0-1.9-0.1-2.8-0.2c-4.8-0.5-9.7-0.4-14.5-0.1c-0.9,0.1-1.9,0.2-2.8,0.4c-3.3,0.8-5.1,3.1-5.8,6.3
			c-0.3,1.6-0.3,3.2-0.2,4.8c0.3,3.5,0.8,7,1.6,10.5c0.4,1.6,0.8,2,2.5,2.1c1.2,0,2.5,0,3.7-0.1c1.9-0.1,3.7,0,5.5,0.5
			c3.2,0.9,5.1,3.1,5.4,6.5c0.3,2.6,0.1,5.2-0.6,7.8c-0.8,3-2.9,4.4-5.7,4.9c-0.7,0.1-1.3,0.1-2,0.1c-0.9,0-1.7-0.1-2.6,0
			c-1.1,0-1.8,0.5-1.9,1.6c-0.1,1.1-0.2,2.3,0,3.4c0.4,3,0.9,5.9,1.4,8.9c0.2,1.6,0.5,3.3,0.6,4.9c0.1,0.9,0,1.8-0.2,2.6
			c-0.4,2-1.6,3.2-3.4,3.9c-2.1,0.8-4.3,0.9-6.5,0.8c-2.2-0.1-4.4-0.5-6.6-1c-2.6-0.6-4.3-2.1-4.8-4.8c-0.2-1.1-0.4-2.2-0.4-3.3
			c0.1-3,0.2-6,0.4-9c0.3-4.8,0.6-9.6,0.8-14.4c0.3-5.1,0.4-10.2,0.2-15.2c-0.3-5.9-1-11.8-2-17.7c-0.5-2.6-0.9-5.2-1.3-7.7
			c-0.3-1.8-0.1-3.5,0.5-5.2c1.1-3,3.2-4.8,6.4-5.1c1.8-0.2,3.5-0.3,5.3-0.2C230.5,212.5,232.8,212.6,235,212.7z"/>
		<path class="st4" d="M128.5,275.8c-0.1-3.1,0.4-6.1,0.9-9.1c0.9-5.2,2.1-10.3,3-15.5c0.7-4,1.2-8,1.8-11.9
			c0.6-4.3,0.7-8.6,0.6-12.9c-0.1-2.6-0.4-5.2-0.9-7.8c-0.3-1.6-0.4-3.1-0.1-4.7c0.3-1.8,1.3-2.8,3.1-2.7c1.1,0,2.2,0.2,3.1,0.6
			c3.5,1.6,7,3.3,9.7,6.2c0.8,0.8,1.5,1.7,2.1,2.5c2.8,3.7,5.3,7.5,7.2,11.7c1.7,3.7,2.6,7.7,3.2,11.7c0.5,3.3,0.9,6.7,0.8,10.1
			c-0.1,4.1-1,8.2-2,12.2c-0.6,2-1.2,4.1-1.8,6.1c-0.7,2.4-1.7,4.8-2.8,7.1c-2,4.2-4.8,7.8-7.9,11.2c-1.7,1.8-3.6,3.2-5.7,4.4
			c-3.7,2.1-7.7,1.1-10.1-2.4c-1.4-2.1-2.2-4.4-2.8-6.7C129,282.6,128.5,279.2,128.5,275.8z"/>
		<path class="st4" d="M132.4,225.4c-0.2,6.1-0.7,11.8-1.7,17.5c-1.1,6.2-2,12.4-3,18.7c-0.5,3.4-0.9,6.8-1.4,10.3
			c-0.6,4.1-0.4,8.2,0.4,12.2c0.3,1.7,0.5,3.4,0.7,5.1c0.1,0.7-0.1,1.4-0.3,2.1c-0.4,1.2-1.5,1.9-2.8,1.7c-0.5-0.1-0.9-0.2-1.3-0.4
			c-1.7-0.7-3.1-1.8-4.5-3c-5.7-5.3-9.5-11.9-12.5-18.9c-1.5-3.6-2.7-7.2-3.3-11.1c-0.6-3.5-0.6-6.9-0.2-10.4
			c0.5-4,1.2-7.9,2.3-11.7c1-3.2,2.2-6.3,4.1-9.2c1.6-2.5,3.3-5,5.1-7.4c2.3-3.1,5.3-5.5,8.5-7.7c3.1-2.1,6.6-1.1,8.3,2.3
			c1,2,1.3,4.1,1.6,6.3C132.3,223.1,132.3,224.4,132.4,225.4z"/>
	</g>
	<g>
		<g>
			<g>
				<path class="st0" d="M128.1,168.3c1.9,0.4,3.7,1,5.3,1.9c3.1,1.7,5.3,4.2,6.1,7.7c0.4,1.5,0.4,3,0.2,4.6c-0.4,2.6-1.8,4.5-4,5.8
					c-2.4,1.3-4.9,2.3-7.6,2.7c-3.6,0.5-7.1,0.6-10.7,0.3c-0.9-0.1-1.9,0-2.8-0.1c-0.3,0-0.7-0.1-0.9-0.3c-0.7-0.4-0.8-1.1-0.2-1.7
					c0.1-0.1,0.2-0.2,0.4-0.3c0.7-0.5,1.1-1.2,1.1-2.1c0.1-1.2,0.2-2.4,0.1-3.5c-0.1-4.1-0.2-8.1-0.3-12.2c0-1,0-2-0.1-3
					c-0.2-5.1-0.3-10.1-0.5-15.2c-0.1-2.6-0.1-5.2-0.2-7.9c0-0.7-0.2-1.2-0.6-1.7c-0.6-0.8-0.5-1.4,0.5-1.7c0.8-0.2,1.6-0.3,2.4-0.3
					c2.6,0.2,5.2,0.3,7.8,0.7c2.1,0.3,4.2,0.8,6.2,1.6c4.6,1.9,7.1,5.5,8.1,10.2c0.4,2,0.2,4-0.4,5.9c-1.3,4-4.1,6.5-8.1,7.8
					c-0.5,0.2-1.1,0.3-1.6,0.5C128.2,168.2,128.2,168.2,128.1,168.3z M122.2,166.4c2-0.3,3.7-0.9,5.2-2c4-3.1,5.7-7.3,5.2-12.3
					c-0.1-0.9-0.5-1.8-0.9-2.6c-1.6-3-4.2-4.6-7.4-5.2c-0.9-0.2-1.9-0.3-2.9-0.2C121.6,151.6,121.9,159,122.2,166.4z M123.1,188
					c2.3-0.1,4.5-0.3,6.5-1.7c1.9-1.2,2.8-3.1,3-5.2c0.3-3.4-1.4-7.7-5.7-9.4c-1.4-0.6-2.8-1-4.4-1
					C122.7,176.5,122.9,182.2,123.1,188z"/>
				<path class="st0" d="M152.2,143.7c0,1.6,0,3.1,0,4.6c0,2.5,0.1,5.1,0.1,7.6c0.1,4.1,0.4,8.2,0.8,12.3c0.3,2.8,0.4,5.7,0.8,8.5
					c0.3,2.3,0.7,4.7,1.1,7c0.2,0.9,0.6,1.8,1.1,2.5c0.5,0.6,1.1,0.9,1.9,0.9c1.2-0.1,2.2-0.5,3.1-1.2c1.9-1.6,2.9-3.7,3.3-6.1
					c0.4-2.2,0.6-4.4,0.6-6.6c0.1-6.4,0.1-12.9,0.1-19.3c0-1.8-0.2-3.6-0.3-5.4c0-0.8-0.1-1.6-0.1-2.4c0-0.8-0.3-1.3-0.9-1.6
					c-0.3-0.2-0.7-0.4-1-0.6c-0.5-0.4-0.7-0.9-0.5-1.5c0.2-0.6,0.6-0.9,1.2-0.9c2,0,3.9,0,5.9,0.1c0.4,0,0.9,0.2,1.3,0.4
					c0.6,0.4,0.5,1.1-0.1,1.5c-0.2,0.2-0.5,0.3-0.8,0.5c-1,0.6-1.5,1.6-1.4,2.8c0.8,8.4,0.9,16.9,0.7,25.3
					c-0.1,3.9-0.5,7.8-1.8,11.6c-0.4,1.1-0.8,2.2-1.4,3.1c-1.3,2.3-3.3,3.8-6,4.4c-1.7,0.4-3.5,0.5-5.2,0.4
					c-2.6-0.1-4.6-1.5-6.1-3.6c-1.3-1.8-2.1-3.8-2.7-5.9c-0.7-2.4-1.1-4.8-1.3-7.2c-0.3-3.4-0.4-6.9-0.6-10.3
					c-0.2-3.3-0.3-6.6-0.5-9.9c-0.1-3-0.3-6-0.4-9c0-0.3-0.1-0.7-0.1-1c0-0.9-0.3-1.5-1.1-1.9c-0.3-0.1-0.5-0.4-0.4-0.7
					c0.1-0.2,0.3-0.5,0.6-0.6c0.3-0.1,0.6-0.2,1-0.1c3,0,6,0.1,9.1,0.2c0.1,0,0.1,0,0.2,0c0.4,0,0.9,0.1,1,0.5
					c0.1,0.4-0.1,0.8-0.5,1.1c-0.1,0.1-0.3,0.2-0.5,0.3C152.4,143.6,152.3,143.7,152.2,143.7z"/>
				<path class="st0" d="M180.7,144.3c-1,0-2-0.1-2.9-0.1c-0.8,0-1.4,0.3-1.5,1.1c0,0.1-0.1,0.3-0.2,0.4c-0.3,0.2-0.6,0.4-0.9,0.4
					c-0.4,0-0.6-0.3-0.7-0.6c-0.1-0.3-0.1-0.5-0.1-0.8c0-0.6,0.1-1.1,0.1-1.7c0.1-1,0.5-1.4,1.5-1.5c1.1-0.1,2.2-0.1,3.2-0.2
					c2.7,0,5.4,0,8.1-0.1c1.4,0,2.8-0.1,4.3-0.1c1,0,1.9,0.1,2.9,0.3c1.1,0.2,1.5,0.7,1.6,1.8c0,0.5,0,1-0.1,1.5
					c-0.2,1-1.3,1.4-1.9,0.6c-0.7-0.8-1.5-1-2.4-1.1c-0.9,0-1.8,0-2.7,0c0,0.1-0.1,0.1-0.1,0.2c0.1,3.9,0.3,7.9,0.4,11.8
					c0.1,2.9,0.1,5.9,0.2,8.8c0.1,5.1,0.1,10.2,0.2,15.3c0.1,3,0.1,5.9,0.2,8.9c0,1.2-0.4,1.8-1.6,1.9c-1.7,0.1-3.5,0.1-5.2,0.1
					c-0.9,0-1.4-0.6-1.5-1.6c-0.1-1.4-0.3-2.9-0.3-4.3c-0.1-3.7-0.1-7.3-0.1-11c0-5,0-10.1,0-15.1c0-3,0-5.9-0.1-8.9
					c0-1.9-0.2-3.8-0.3-5.7C180.8,144.6,180.7,144.5,180.7,144.3z"/>
			</g>
			<g>
				<path class="st0" d="M264.2,169.2c0.4,0.2,0.6,0.4,0.9,0.6c1.1,0.7,2.1,1.6,2.9,2.6c2.3,2.7,4,5.8,4.9,9.3
					c0.6,2.4,1.1,4.8,1.6,7.2c0.1,0.5,0.3,0.8,0.7,1c0.8,0.4,1,0.7,0.8,1.2c-0.1,0.5-0.5,0.7-1.3,0.7c-1.8,0-3.6-0.1-5.4-0.1
					c-0.2,0-0.4,0-0.5-0.1c-0.2-0.2-0.5-0.4-0.6-0.7c-0.1-0.3,0.1-0.7,0.4-0.8c1.4-0.5,1.3-1.5,1.1-2.7c-0.7-3.6-1.7-7.1-3.7-10.2
					c-1.2-1.8-2.6-3.3-4.2-4.6c-0.9-0.8-2-1.4-3.3-1.7c0,0.4,0,0.8,0,1.1c0,4.1,0,8.3,0.1,12.4c0,1.4,0.2,2.8,0.3,4.1
					c0.1,0.6,0.3,1.1,0.8,1.4c0.5,0.3,0.6,0.7,0.4,1.2c-0.1,0.5-0.5,0.7-0.9,0.8c0,0-0.1,0-0.1,0c-2.2,0-4.3,0-6.5-0.1
					c-1.2,0-1.4-0.6-1-1.7c0.2-0.6,0.4-1.3,0.4-1.9c0-3.4-0.1-6.8-0.1-10.1c0-2.7,0.1-5.4,0-8.1c0-5.6-0.1-11.1-0.2-16.7
					c-0.1-2.8-0.2-5.7-0.3-8.5c0-0.4-0.2-0.7-0.5-0.9c-0.4-0.2-0.7-0.5-0.7-1c0.1-0.6,0.5-0.8,1-0.9c4.1-0.6,8.2-0.9,12.3,0.2
					c1.3,0.4,2.5,0.9,3.8,1.5c1.3,0.7,2.4,1.7,3.3,2.9c1.8,2.4,2.9,5.2,3.4,8.2c0.5,3.4-0.6,6.4-2.7,9.1c-1.7,2.3-4,3.9-6.7,4.9
					C264.6,169.1,264.4,169.1,264.2,169.2z M258.4,167c0.1,0,0.2,0.1,0.3,0.1c4.6-0.4,7.2-3.2,7.7-7.2c0.3-2.7,0.1-5.3-0.3-7.9
					c-0.3-1.8-0.8-3.5-1.5-5.1c-0.6-1.2-1.5-1.9-2.7-2.2c-0.9-0.2-1.8-0.3-2.8-0.4c-0.2,0-0.4,0-0.6,0.1
					C258.4,151.9,258.4,159.5,258.4,167z"/>
				<path class="st0" d="M282.1,188.7c-0.2,0.5-0.3,0.8-0.4,1.1c-0.1,0.3-0.1,0.7-0.2,1c-0.1,0.2-0.5,0.5-0.7,0.5
					c-0.2,0-0.5-0.3-0.7-0.5c-0.1-0.1-0.1-0.3-0.2-0.5c-0.2-2.3-0.4-4.5-0.6-6.8c0-0.6,0-1.2,0.2-1.8c0.3-1,1.1-1.3,1.9-0.7
					c0.5,0.4,1,0.9,1.4,1.4c0.7,0.8,1.3,1.6,2,2.4c0.8,1,1.9,1.6,3.1,2.1c2.5,1.1,4.9-0.2,5.5-2.9c0.3-1.5,0.1-3-0.3-4.5
					c-0.8-3.3-2.3-6.3-4.1-9.1c-1.8-2.7-3.7-5.3-5.6-7.9c-1.7-2.4-3.3-4.8-4.3-7.6c-0.6-1.8-1-3.5-0.9-5.4c0.1-3.1,2.1-6.5,6.1-7.5
					c1.6-0.4,3.1-0.8,4.7-0.3c0.8,0.2,1.5,0.6,2.2,0.9c0.8,0.4,1.1,0.3,1.6-0.5c0.3-0.5,0.5-1.1,1.3-1c0.7,0.1,0.9,0.7,1,1.3
					c0.4,1.9,0.2,3.8-0.1,5.7c0,0.2-0.1,0.4-0.2,0.5c-0.4,0.8-1.2,1.1-1.9,0.5c-0.6-0.5-1.1-1.1-1.6-1.7c-0.5-0.6-0.9-1.2-1.4-1.8
					c-0.2-0.3-0.5-0.5-0.7-0.7c-0.7-0.5-1.5-0.8-2.3-0.4c-0.8,0.4-1.3,1.2-1.3,2.1c0,0.7,0.1,1.5,0.3,2.2c0.4,2,1.3,3.8,2.4,5.5
					c2.4,3.7,4.8,7.3,7.2,11c0.7,1,1.3,2,2,3c2,3.1,3.2,6.5,3.7,10.2c0.5,3.4-0.5,6.3-2.7,8.8c-2.7,3.1-6.3,4.2-10.3,3.9
					c-1.4-0.1-2.7-0.7-3.9-1.4C283.5,189.4,282.8,189.1,282.1,188.7z"/>
				<path class="st0" d="M221.4,144.7c-0.1,7.5-0.2,14.9-0.2,22.3c0.3,0,0.5,0.1,0.7,0.1c0.6,0,1.3,0,1.9,0c1,0.1,1.7-0.4,2.2-1.2
					c0-0.1,0.1-0.2,0.1-0.2c0.2-0.4,0.5-0.7,0.9-0.6c0.4,0.1,0.6,0.5,0.7,0.9c0.1,0.4,0.1,0.7,0.1,1.1c0,1-0.1,1.9-0.1,2.9
					c0,0.4-0.2,0.7-0.6,0.8c-0.4,0.1-0.7,0-1-0.3c-0.6-0.8-1.4-1-2.3-1c-0.8,0-1.7,0-2.6,0.1c0,0.4,0,0.8,0,1.1c0,2,0.1,4,0.1,6
					c0,3.7,0.1,7.3,0.1,11c0,0.4,0,0.7,0,1.1c0,0.6,0.2,1.1,0.8,1.3c0.4,0.2,0.7,0.5,0.6,1c-0.2,0.5-0.6,0.6-1,0.6
					c-1.7,0-3.4,0-5.2,0c-0.7,0-1.4,0-2.1,0c-0.4,0-0.8-0.1-1.2-0.2c-0.7-0.3-0.8-0.9-0.3-1.4c0,0,0.1-0.1,0.1-0.1
					c0.6-0.4,0.8-1,0.8-1.7c0-4.2-0.1-8.4-0.1-12.6c0-5.8,0-11.6,0-17.4c0-2.5-0.1-4.9-0.2-7.4c0-1.6-0.1-3.3-0.1-4.9
					c0-0.3,0-0.7-0.1-1c-0.1-0.6-0.3-1.1-0.9-1.4c-0.3-0.1-0.5-0.4-0.5-0.8c0.1-0.4,0.3-0.6,0.7-0.6c0.3-0.1,0.5-0.1,0.8-0.1
					c5.4-0.5,10.7-0.4,16.1-0.4c1.3,0,2.5,0.2,3.8,0.4c0.7,0.1,1.2,0.5,1.3,1.2c0.1,1,0.1,2.1,0.1,3.2c0,0.4-0.3,0.7-0.7,0.7
					c-0.4,0-0.7-0.2-0.8-0.6c0-0.1-0.1-0.2-0.1-0.3c-0.2-0.8-0.7-1.1-1.5-1.2c-0.9-0.1-1.8-0.2-2.7-0.2c-2.4,0-4.9,0-7.3,0
					C221.8,144.6,221.7,144.6,221.4,144.7z"/>
				<path class="st0" d="M305.6,144.2c-1,0-2-0.1-3-0.1c-0.8,0-1.4,0.3-1.6,1.1c0,0.1-0.1,0.3-0.2,0.4c-0.3,0.2-0.6,0.4-0.9,0.4
					c-0.4,0-0.6-0.3-0.7-0.6c-0.1-0.3-0.1-0.6-0.1-0.8c0-0.6,0.1-1.1,0.1-1.7c0.1-1,0.5-1.4,1.5-1.5c1.1-0.1,2.2-0.1,3.3-0.2
					c2.7,0,5.5,0,8.2-0.1c1.4,0,2.9-0.1,4.3-0.1c1,0,1.9,0.1,2.9,0.3c1.1,0.2,1.6,0.7,1.6,1.8c0,0.5,0,1-0.1,1.5
					c-0.2,1-1.3,1.4-2,0.6c-0.7-0.8-1.5-1.1-2.5-1.1c-0.9,0-1.8,0-2.7,0c0,0.1-0.1,0.1-0.1,0.2c0.1,4,0.3,8,0.4,11.9
					c0.1,3,0.1,5.9,0.2,8.9c0.1,5.1,0.1,10.3,0.2,15.4c0.1,3,0.1,6,0.2,9c0,1.2-0.4,1.8-1.6,1.9c-1.7,0.1-3.5,0.1-5.2,0.1
					c-0.9,0-1.4-0.6-1.5-1.6c-0.1-1.5-0.3-2.9-0.3-4.4c-0.1-3.7-0.1-7.4-0.1-11.1c0-5.1,0-10.2,0-15.2c0-3,0-6-0.1-9
					c0-1.9-0.2-3.9-0.3-5.8C305.7,144.5,305.7,144.4,305.6,144.2z"/>
				<path class="st0" d="M243.3,191.7c-1.3,0-2.5,0-3.8,0c-0.3,0-0.6,0-0.9-0.1c-0.8-0.3-1.1-1.2-0.4-1.7c0.8-0.7,1-1.5,1-2.5
					c0-2.8,0-5.6,0-8.3c0-3.4,0-6.7,0-10.1c0-4.7,0-9.4-0.1-14.1c0-2.8-0.2-5.6-0.3-8.4c0-0.5-0.1-1-0.2-1.4c0-0.5-0.2-0.9-0.6-1.3
					c-0.4-0.3-0.5-0.8-0.3-1.2c0.2-0.5,0.6-0.7,1.1-0.7c2.6,0,5.1,0,7.7,0c0.4,0,0.7,0.1,1.1,0.2c1,0.2,1.2,0.9,0.6,1.7
					c-0.1,0.2-0.3,0.3-0.4,0.5c-0.6,0.5-0.8,1.2-0.8,1.9c0,5.3,0,10.7,0,16c0,4.4-0.1,8.8-0.2,13.2c0,3.1-0.2,6.3,0.2,9.4
					c0.1,1.1,0.3,2.1,0.5,3.2c0.1,0.7,0.4,1.3,0.9,1.8c0.3,0.3,0.5,0.8,0.2,1.2c-0.2,0.5-0.6,0.6-1.1,0.6
					C246.1,191.7,244.7,191.7,243.3,191.7C243.3,191.7,243.3,191.7,243.3,191.7z"/>
			</g>
		</g>
		<g>
			<g>
				<path class="st5" d="M81.9,164.3c4.2,0.1,8.3,0.1,12.5,0.2c0.7,0,1.5,0.1,2.2,0.1c0.5,0,0.9,0.3,0.9,0.6c0.1,0.4-0.1,0.8-0.6,1
					c-0.7,0.3-1.3,0.6-2,0.7c-2.5,0.4-5,0.8-7.5,1.2c-3.1,0.4-6.2,0.7-9.4,1.1c-3.6,0.4-7.2,0.8-10.8,1.1c-3.7,0.3-7.4,0.1-11.1-0.8
					c-0.5-0.1-1-0.3-1.4-0.5c-1-0.5-1.1-1.5-0.2-2.2c0.5-0.3,1.1-0.6,1.6-0.8c1.7-0.3,3.4-0.7,5.1-0.8
					C68.1,164.5,75,164.4,81.9,164.3z"/>
				<path class="st5" d="M67.1,181c-1-0.1-2.1-0.2-3.2-0.3c-0.3,0-0.5-0.1-0.8-0.3c-0.8-0.4-1-1.3-0.3-1.9c0.4-0.4,0.9-0.7,1.5-0.9
					c1.4-0.5,2.9-0.9,4.4-1.2c4.5-0.8,9.1-1.6,13.6-2.4c5.4-0.9,10.8-1.7,16.2-2.6c2.5-0.4,5-0.8,7.5-1.2c0.3,0,0.6,0,0.8,0
					c0.4,0,0.6,0.2,0.8,0.5c0.1,0.4,0,0.7-0.3,0.9c-0.3,0.2-0.6,0.5-1,0.6c-0.9,0.3-1.9,0.6-2.8,0.9c-5.3,1.4-10.7,2.9-16.1,4.3
					c-4.8,1.3-9.7,2.4-14.6,3C70.9,180.7,69.1,180.8,67.1,181z"/>
				<path class="st5" d="M69.2,149.1c4,0.1,8,0.5,11.9,1.4c6.8,1.5,13.6,3,20.4,4.5c1.6,0.3,3.2,0.7,4.7,1.1c0.7,0.2,1,0.5,0.9,0.9
					c-0.1,0.4-0.5,0.7-1.1,0.7c-1.2-0.1-2.3-0.2-3.5-0.4c-3.3-0.4-6.5-0.8-9.8-1.1c-5.8-0.6-11.5-1-17.3-1.8c-2.9-0.4-5.8-1-8.7-1.8
					c-0.6-0.2-1.2-0.4-1.8-0.7c-0.5-0.2-0.8-0.6-0.8-1.2c0-0.6,0.4-0.9,0.9-1.1c0.8-0.2,1.7-0.4,2.5-0.5
					C68.2,149.1,68.7,149.1,69.2,149.1z"/>
				<path class="st5" d="M76.6,194.9c-0.4,0-0.9,0-1.3-0.1c-0.9-0.2-1.2-0.9-0.8-1.7c0.2-0.4,0.5-0.7,0.8-1c0.9-1,2.1-1.7,3.2-2.3
					c2.7-1.5,5.5-2.7,8.4-3.9c5.3-2.1,10.5-4.3,15.8-6.5c0.5-0.2,1-0.4,1.5-0.6c0.3-0.1,0.7-0.1,1,0.2c0.3,0.4,0.1,0.7-0.1,1
					c-0.5,0.5-1,1.1-1.6,1.6c-1.8,1.3-3.7,2.6-5.6,3.8c-4.3,2.6-8.5,5.2-13.1,7.2c-1.9,0.9-3.8,1.5-5.9,2
					C78.2,194.8,77.4,194.9,76.6,194.9C76.6,195,76.6,194.9,76.6,194.9z"/>
				<path class="st5" d="M73.5,135.8c0.8,0.2,1.6,0.3,2.5,0.5c3.7,1,7.3,2.3,10.8,3.8c4.1,1.7,8.2,3.6,12.3,5.3
					c0.2,0.1,0.5,0.2,0.7,0.3c0.3,0.2,0.5,0.5,0.4,0.8c-0.1,0.4-0.4,0.5-0.7,0.5c-0.3,0-0.7,0-1-0.1c-1.8-0.5-3.6-1.1-5.5-1.6
					c-2.6-0.8-5.3-1.4-8-2.2c-3.3-1-6.7-2-9.9-3.3c-0.8-0.3-1.6-0.7-2.4-1.2c-0.4-0.2-0.7-0.5-1-0.8c-0.7-0.7-0.5-1.6,0.5-2
					C72.6,135.9,73.1,135.9,73.5,135.8z"/>
			</g>
			<g>
				<path class="st5" d="M350.1,164.3c-4.2,0.1-8.3,0.1-12.5,0.2c-0.7,0-1.5,0.1-2.2,0.1c-0.5,0-0.9,0.3-0.9,0.6
					c-0.1,0.4,0.1,0.8,0.6,1c0.7,0.3,1.3,0.6,2,0.7c2.5,0.4,5,0.8,7.5,1.2c3.1,0.4,6.2,0.7,9.4,1.1c3.6,0.4,7.2,0.8,10.8,1.1
					c3.7,0.3,7.4,0.1,11.1-0.8c0.5-0.1,1-0.3,1.4-0.5c1-0.5,1.1-1.5,0.2-2.2c-0.5-0.3-1.1-0.6-1.6-0.8c-1.7-0.3-3.4-0.7-5.1-0.8
					C363.9,164.5,357,164.4,350.1,164.3z"/>
				<path class="st5" d="M364.9,181c1-0.1,2.1-0.2,3.2-0.3c0.3,0,0.5-0.1,0.8-0.3c0.8-0.4,1-1.3,0.3-1.9c-0.4-0.4-0.9-0.7-1.5-0.9
					c-1.4-0.5-2.9-0.9-4.4-1.2c-4.5-0.8-9.1-1.6-13.6-2.4c-5.4-0.9-10.8-1.7-16.2-2.6c-2.5-0.4-5-0.8-7.5-1.2c-0.3,0-0.6,0-0.8,0
					c-0.4,0-0.6,0.2-0.8,0.5c-0.1,0.4,0,0.7,0.3,0.9c0.3,0.2,0.6,0.5,1,0.6c0.9,0.3,1.9,0.6,2.8,0.9c5.3,1.4,10.7,2.9,16.1,4.3
					c4.8,1.3,9.7,2.4,14.6,3C361.1,180.7,362.9,180.8,364.9,181z"/>
				<path class="st5" d="M362.8,149.1c-4,0.1-8,0.5-11.9,1.4c-6.8,1.5-13.6,3-20.4,4.5c-1.6,0.3-3.2,0.7-4.7,1.1
					c-0.7,0.2-1,0.5-0.9,0.9c0.1,0.4,0.5,0.7,1.1,0.7c1.2-0.1,2.3-0.2,3.5-0.4c3.3-0.4,6.5-0.8,9.8-1.1c5.8-0.6,11.5-1,17.3-1.8
					c2.9-0.4,5.8-1,8.7-1.8c0.6-0.2,1.2-0.4,1.8-0.7c0.5-0.2,0.8-0.6,0.8-1.2c0-0.6-0.4-0.9-0.9-1.1c-0.8-0.2-1.7-0.4-2.5-0.5
					C363.8,149.1,363.3,149.1,362.8,149.1z"/>
				<path class="st5" d="M355.4,194.9c0.4,0,0.9,0,1.3-0.1c0.9-0.2,1.2-0.9,0.8-1.7c-0.2-0.4-0.5-0.7-0.8-1c-0.9-1-2.1-1.7-3.2-2.3
					c-2.7-1.5-5.5-2.7-8.4-3.9c-5.3-2.1-10.5-4.3-15.8-6.5c-0.5-0.2-1-0.4-1.5-0.6c-0.3-0.1-0.7-0.1-1,0.2c-0.3,0.4-0.1,0.7,0.1,1
					c0.5,0.5,1,1.1,1.6,1.6c1.8,1.3,3.7,2.6,5.6,3.8c4.3,2.6,8.6,5.2,13.1,7.2c1.9,0.9,3.8,1.5,5.9,2
					C353.8,194.8,354.6,194.9,355.4,194.9C355.4,195,355.4,194.9,355.4,194.9z"/>
				<path class="st5" d="M358.5,135.8c-0.8,0.2-1.6,0.3-2.5,0.5c-3.7,1-7.3,2.3-10.8,3.8c-4.1,1.7-8.2,3.6-12.3,5.3
					c-0.2,0.1-0.5,0.2-0.7,0.3c-0.3,0.2-0.5,0.5-0.4,0.8c0.1,0.4,0.4,0.5,0.7,0.5c0.3,0,0.7,0,1-0.1c1.8-0.5,3.6-1.1,5.5-1.6
					c2.6-0.8,5.3-1.4,8-2.2c3.3-1,6.7-2,9.9-3.3c0.8-0.3,1.6-0.7,2.4-1.2c0.4-0.2,0.7-0.5,1-0.8c0.7-0.7,0.5-1.6-0.5-2
					C359.4,135.9,358.9,135.9,358.5,135.8z"/>
			</g>
		</g>
	</g>
</g>
</svg>
